<?xml version="1.0" encoding="utf-8"?>
<!-- Generator: Adobe Illustrator 25.2.1, SVG Export Plug-In . SVG Version: 6.00 Build 0)  -->
<svg version="1.1" id="Elements" xmlns="http://www.w3.org/2000/svg" xmlns:xlink="http://www.w3.org/1999/xlink" x="0px" y="0px"
	 viewBox="0 0 2000 2000" style="enable-background:new 0 0 2000 2000;" xml:space="preserve">
<style type="text/css">
	.st0{fill:#EDEEEE;}
	.st1{fill:#FFFFFF;}
	.st2{fill:#193053;}
	.st3{fill:#AC6132;}
	.st4{fill:#A9BECF;}
	.st5{fill:none;}
	.st6{fill:#883F2E;}
	.st7{fill:#CA7546;}
	.st8{fill:#335773;}
	.st9{fill:#00BED1;}
	.st10{fill:#E99861;}
	.st11{fill:#230B00;}
	.st12{fill:#F17F5B;}
	.st13{fill:#FFC200;}
	.st14{fill:url(#SVGID_1_);}
	.st15{fill:#FF9F7D;}
	.st16{fill:#C1532E;}
	.st17{fill:url(#SVGID_2_);}
	.st18{fill:#E9896F;}
	.st19{fill:#FFB398;}
	.st20{fill:#00A5BD;}
	.st21{fill:#787378;}
	.st22{fill:#CDCBCC;}
	.st23{fill:#969294;}
	.st24{fill:#F1F2F2;}
	.st25{fill:url(#SVGID_3_);}
	.st26{fill:url(#SVGID_4_);}
	.st27{fill:url(#SVGID_5_);}
	.st28{fill:url(#SVGID_6_);}
	.st29{fill:url(#SVGID_7_);}
	.st30{fill:url(#SVGID_8_);}
	.st31{fill:#AAA7AA;}
	.st32{fill:#928E92;}
	.st33{fill:#706B70;}
	.st34{fill:url(#SVGID_9_);}
</style>
<g>
	<g>
		<path class="st0" d="M1846.4,1545c-195.9-347.8,41.4-526.3-42-853.7c-42.1-178.4-196.9-318.2-377.4-347.1
			c-119.4-37.5-259.5-16.9-382.8-34.2c-95.7-17-163.5-109.8-248-151.4C475.3,11.3,162.2,314,244.9,653.1
			c72.4,235.6,184.6,287.6-7.6,515.1c-97.5,197.8-202.6,450.8,8.2,619.3c199.9,149.6,456,40.1,679.9,28.4
			c268-12.2,552.9,149.6,805.4-0.5C1834.6,1768.3,1891.2,1653.3,1846.4,1545z M350.3,1064.8c-47,47.7-93.4,105.7-131.9,169.1
			c5.3-13.7,11.7-27,19.1-39.8c252.5-302.3,27-329.2,9.6-636.7C285.8,729,491,889.1,350.3,1064.8z M970.9,331.6
			c-37.8-29.1-67.9-74.7-100.8-112.7c131.8,138.7,289.9,105.6,453.9,121C1200.5,357.2,1086.8,415.1,970.9,331.6z M1807.9,851.8
			c-11,145.7-69.5,294.7-60.4,437.3C1705.4,1155,1742.2,1132.1,1807.9,851.8z"/>
		<path class="st1" d="M928.8,253.3c6.7,5,13.4,9.8,20.2,14.4l-11.5,6.8c-7-4.4-14-9.2-20.9-14.3L928.8,253.3z M342.6,1072.7
			c-10.8,11.2-21.6,23-32.2,35.3l-187.3,434.1c0,2.7,0.1,5.4,0.2,8.1L342.6,1072.7z M1047.5,318.8l18.4-6.2
			c-7.3-0.8-14.5-1.6-21.7-2.7c-7.3-1.3-14.4-3-21.4-5.2l-12.3,3.8C1022.6,312.7,1035,316,1047.5,318.8z M333.3,849.6
			c-2.9-7.2-5.9-14.5-9.1-21.8l-7.4,10.5c3,7.5,5.8,14.9,8.5,22.1L333.3,849.6z M1471,353.6l-727.5,67.9l240.4-81.2
			c-4.3-2.7-8.6-5.6-13-8.7c-3.2-2.4-6.3-5-9.4-7.7l-226.8,70.8l187.8-111.4c-5-6-10-12.1-14.9-18.2l-187,105.1l155.9-143.7
			c-2.2-2.6-4.3-5.1-6.5-7.7c2.3,2.5,4.7,4.8,7,7.2l7.7-7.1c-6.1-4.9-12.3-9.7-18.4-14.5L701.8,349.3l123.4-174.1
			c-6.6-4.2-13.3-8.2-20.1-11.9L679,332.7L760.4,144c-7.5-2.7-15-5.1-22.4-7.3l-84.7,184.5L692.3,126c-7.8-1.4-15.7-2.5-23.4-3.3
			l-43.3,192.7l-2.3-194.9c-8,0.1-15.9,0.4-23.7,1l-2.3,193.9l-42.2-187.8c-7.8,1.6-15.5,3.4-23.1,5.4l37.7,188.3l-80-174.3
			c-7.4,2.9-14.6,6.1-21.8,9.5l76,176.2L428.8,177.9c-6.7,4.2-13.3,8.6-19.7,13.2l112.1,158.2L373.6,219.5
			c-5.9,5.3-11.6,10.7-17.2,16.3l145.9,134.5l-177-99.5c-4.9,6.2-9.6,12.5-14.2,18.9l177.1,105l-203.1-63.4
			c-3.8,6.9-7.3,13.8-10.7,20.9l205.1,69.3l-224.7-21c-2.5,7.4-4.8,14.8-6.9,22.3l228.7,26.7l-240.3,28.1c-1.1,7.6-2,15.2-2.8,23
			l246-23l-247.6,83.7c0.3,7.5,0.8,15.1,1.5,22.7l15.4-4.8c-0.7-7.2-1.2-14.5-1.6-21.9c1.6,6.9,3.4,13.8,5.5,20.7l235.6-73.5
			L273.2,632c3.1,6.8,6.3,13.5,9.6,20.3l219.5-123.4L310.8,705.4c3.7,6.6,7.3,13.2,11,19.8l199.4-175.4l-167,235.5
			c3.7,7.3,7.2,14.5,10.6,21.8L544,566.5L397,907.3c2,14.6,2.6,29.3,1.4,44l171.4-373.3L330.9,1769.8L597.4,583.8l14.1,1215.4
			l14.1-1215.4l266.5,1185.9L653.2,577.9l507.2,1104.6L679,566.5l725.8,975l-703-991.6l912.7,802.8L720.7,528.9l1021.7,574.2
			c0.1-0.3,0.2-0.7,0.3-1L734.8,504.5l1088.1,339.6c0-0.6,0-1.2,0-1.8L743.5,477.6l1013.3,94.6c-1-1.7-1.9-3.3-2.9-5L746.5,449.6
			l751.7-87.8C1489.2,358.8,1480.1,356,1471,353.6z M257.8,641.1l-13.8,8.2c0.3,1.3,0.6,2.6,0.9,3.8c1.8,5.9,3.7,11.7,5.5,17.4
			l12.4-7C261,656.2,259.3,648.8,257.8,641.1z M291.6,751.9c-2.8-6.9-5.5-14-8.2-21.2l-8.3,7.7c2.8,7.1,5.6,13.9,8.4,20.6
			L291.6,751.9z M1780.3,1124.4l-18.3-10.9c0,0.2-0.1,0.3-0.1,0.5L1780.3,1124.4z"/>
	</g>
	<g>
		<path class="st2" d="M1074.4,1149.1c-27.8,164.4-26.2,301.7-26.2,301.7l399.2-7.5l-23.7-236.2L1074.4,1149.1z"/>
		<g>
			<path class="st3" d="M1031,802.8c-11.8,51.9-44.9,138.5-44.9,138.5s-0.6,40.9-0.7,44.4c-0.2,3.5,53.5,50.9,53.5,50.9
				s74.2-39.7,75-48.7C1114.3,981.6,1031,802.8,1031,802.8z"/>
			<g>
				<path class="st4" d="M1068.2,650.7l-21,10.4c0,0-30.6,134.2-31.5,138.9c-0.9,4.7-28.7,57.9-28.7,57.9s26.1,40.8,37,46.4
					c10.9,5.6,72.9,29.1,72.9,29.1s11.8-229.8,9.1-234.3C1103.4,694.6,1068.2,650.7,1068.2,650.7z"/>
				<g>
					<path class="st2" d="M1050.5,829.1c3.6,20,14.4,19.9,20.7,38.2c-2.6-168.7,6.8-183.8-10.5-209.4
						C1053.2,703.3,1042,783.2,1050.5,829.1z"/>
					<path class="st2" d="M1095.9,910.9c-4.6-6.7-9.2-13.8-13.5-21.1c1,0.7,1.5,1,1.5,1c-23.4-34.7-38.6-79.5-47.3-120.2
						c4.9,39.5,19.8,81.4,41.2,115.3c-13.5-11-28.4-29.2-39.5-50c3.4,9.5,7.2,20.4,6.2,30.9c-8.1-9.6-18-22.2-26-31.8
						c5.5,19.8,10.6,38.9,16.3,58.2c-14.4-17.6-22.9-28-22.9-28c6.2,8.5,18.9,25.4,26.6,35.4c-4-15.7-9.4-36.4-13.9-53.6
						c7.3,9,14.6,17.9,22,26.7c0.9-7,0.9-14.2-0.7-21c11.8,16.8,20.6,24.9,32.5,34.2c5.8,9.4,14.6,21.4,21.1,29.2
						C1099.5,916.1,1098.2,914.3,1095.9,910.9z"/>
				</g>
			</g>
		</g>
		<g>
			<path class="st4" d="M1327,595.7l26.9,27.2c0,0,52.8,40.7,61.3,40.7c8.5,0,75.4,17.7,75.4,17.7l-3.8,186.7
				c0,0-52.2,150.3-46.2,159.7l4.3,80.5l-20.7,37.1c0,0,9.9,35.8,10.9,49.3s6.2,117.9,6.2,117.9s-180.7,35.9-213.2,29
				c-32.5-6.9-192.5-62.6-192.5-62.6s10.6-112.1,13.5-120.2c2.9-8.1,6.4-87.6,6.4-87.6l13-43.8c0,0-1.9-87.8-0.5-99.7
				c1.4-11.8-6.5-65.9-8.8-70.5c-2.3-4.6-6.7-154.3,7.3-205.5c0,0,52.3-6.3,56.5-6.3c4.2,0,42.8-13.1,42.8-13.1L1327,595.7z"/>
			<g>
				<path class="st5" d="M1398.7,749.1l3.8-16.4c-0.2,1-0.5,1.9-0.7,2.9C1400.8,739.9,1399.8,744.6,1398.7,749.1z"/>
				<path class="st2" d="M1463.4,690.9c-31.5-5.1-63.1-16-91.8-31.8c5.4-4.5,10.4-8.7,15-12.6c-0.5-0.3-1-0.7-1.4-1
					c-4.8,3.8-10.1,8-15.7,12.5c-19.9-10.9-40.3-26.2-56.2-41.2c14.8,15.8,34.4,31.8,53.9,43c-31,24.1-133.3,110.1-129.5,107.4
					c-3.1,3,101.9-80.6,131.6-106.2c29.4,17,62.6,27.6,95.6,31c-26.5,9.9-53.4,21.8-57.8,23.8c1.2-4.7,5.7-18.7,6.4-20.9
					c-9.5,24.4-18,53.9-22.5,80.7l-12.1-26l2.1,58.4l-11.6,12.6c-1.7-23-3.1-49.5-3.9-69.5c-0.4,20.8,0.1,48.5,1.5,72.2l-10.4,11.3
					l-62.6-58.4c0,0,41.4,248.4,43.5,252.6c1.9,3.9,54.7,35.5,66.2,39.2c-24.1,17.4-49.7,34-74.4,48.3c38.5-19.2,78-45.3,111.6-73.8
					l-0.7-13.9c-6-9.5,47-159.5,47-159.5l4.7-186.2C1483,686,1472.9,689.6,1463.4,690.9z M1398.7,749.1c1-4.5,2.1-9.2,3.1-13.5
					c0.3-1,0.5-1.9,0.7-2.9L1398.7,749.1z"/>
				<path class="st2" d="M1289.7,1175.7c18.8,0.8,59,2.8,84.6,3.9c-65.2,21.9-135.1,27.5-202.3,17.5c72.2,12.7,147.9,5.5,217.5-19.6
					c-20-0.9-55.9-2.6-78.7-3.5c3.5-0.8,6.9-1.7,10.3-2.6c42.1-10.6,85.1-31.7,120.2-57l0.9-1.5
					C1398,1143.6,1342.6,1166.8,1289.7,1175.7z"/>
				<path class="st2" d="M1090.6,1102.6c13.6,9.1,29,19.4,45.7,30.7c-26.1,0.5-56.2-5.7-80.6-14.4c54.4,35.2,118.1,58,179.2,64.5
					c-52.7-7.4-109.3-26.3-157.9-55c22.4,6.2,45.2,8.2,67.6,7.3c-24.8-16.3-60.6-39.6-89.9-58.5c0,0.4,0,0.8-0.1,1.2
					C1068.1,1087.5,1082.2,1097,1090.6,1102.6z"/>
				<path class="st2" d="M1052.9,1158c38.3,51.5,91.8,97.1,148.3,126.8c-56.7-33.5-110.3-80.7-151.7-133.3c-0.1,0.6-0.2,1.1-0.2,1.6
					C1050.5,1154.8,1051.7,1156.5,1052.9,1158z"/>
				<path class="st2" d="M1043.6,1235.1c81.4,60.5,191.8,91.3,292.8,81.5c0.8,0-14.2,0.4-18.7,0.6
					C1222.4,1318.9,1122,1288.7,1043.6,1235.1z"/>
				<path class="st2" d="M1434.6,1205.6c-0.1-1.1-0.1-2.1-0.2-3.1c-68,29.8-145.1,47-215.6,48.9
					C1289.3,1251.4,1366.5,1235.3,1434.6,1205.6z"/>
				<path class="st2" d="M1326,1265c36.5-6.3,75.2-22.6,109.3-45.3c0-0.8-0.1-1.6-0.1-2.3C1401.4,1240.6,1361.9,1257.6,1326,1265z"
					/>
				<path class="st2" d="M1436.8,1251.6c-50.2,30.4-112.8,46.1-171,42.8c58.1,6.9,121.9-8.9,171.1-41.7
					C1436.8,1252.3,1436.8,1251.9,1436.8,1251.6z"/>
				<path class="st2" d="M1173.1,656.9c-34.9,10-72.7,15.7-109.5,17.2c-0.1,0.5-0.1,1.1-0.2,1.7c37.1-0.2,75.1-5.7,110.6-16.4
					c11.8,32.5,28.5,63,48.5,89.7c-18.2-27.7-33.9-58.2-45.7-90.5c24.1-7.2,50.8-18.5,71.9-30c-21.7,10.4-48.6,20.9-72.8,27.6
					c-2.9-8.1-5.6-16.2-8-24.5l-0.3,0.1c0,0-0.8,0.3-2.1,0.7C1167.7,640.7,1170.3,648.9,1173.1,656.9z"/>
				<path class="st2" d="M1346.3,1072c-62.2-67.9-117.3-151.8-154.9-235.9c32.2,80.7,83,160.2,143,223.6
					C1337.3,1062.6,1346.7,1072.4,1346.3,1072z"/>
				<path class="st2" d="M1064.9,1037.7c22.5,3.5,59.3,10.2,97.9,17.5c1.4,7.7,2.2,12,2.2,12s-0.6-4.2-1.8-11.9
					c26.9,5.1,54.6,10.4,79,15.1c7.7,19.2,19.8,46.8,27.5,63.3c-7-16.5-18.2-43.8-25.5-62.9c41.7,8.1,73.3,14.4,73.3,14.4l-5.5-36.1
					l-87.5-32.3c-26.1-74.5-48.5-156-64.1-232c13.2,75.9,34.3,156.9,61,230.8l-66.7-24.6c-11-89.7-17.1-188.5-17.5-278.2
					c-2.5,89.4,2.8,188.2,15.4,277.4l-84.8-31.3c0,29.4,0.7,67.3,0.7,67.3L1064.9,1037.7z"/>
			</g>
		</g>
		<path class="st3" d="M1320,540.4c5.4,15,11.7,74.4,11.7,74.4l19.4,30.3l-74,70.1l-46.7,36.8l-43.6-40.6l15.1-46.6l3.8-80.8
			L1320,540.4z"/>
		<path class="st6" d="M1320,540.4c5.4,15,11.7,74.4,11.7,74.4l-54.6,100.4l-46.7,36.8l-43.6-40.6l15.1-46.6l3.8-80.8L1320,540.4z"
			/>
		<g>
			<path class="st7" d="M1133,454.8c-1,37-5.4,76.5-5.4,76.5l17.3,17.4l-1.5,29.1l49.5,94.4l37.4,2.8c0,0,73.7-47.6,81-65.5
				s13.2-44.7,13.2-44.7s18.3-21,21.3-26.6c3-5.6-3.2-62.6-3.2-62.6l-15.7,0.6c0,0,0.1-82.4-17.7-83.9
				c-17.8-1.5-123.3,10.4-130.7,10.4C1171.1,402.8,1133,454.8,1133,454.8z"/>
			<g>
				<g>
					<path class="st2" d="M1154.6,567.6c-6.7-4.3-9-15.8-4.5-22.3C1156.8,549.7,1159.1,561.1,1154.6,567.6z"/>
				</g>
				<g>
					<path class="st2" d="M1218.7,570.2c-6.4-4.3-7.9-15-3-20.8C1222.1,553.7,1223.6,564.4,1218.7,570.2z"/>
				</g>
			</g>
			<g>
				<path class="st2" d="M1194.4,605.5c-7.8,2-20.1,3.6-29.2,3.4c4.8-23.6,6-51.4,2.1-72.3c-1.1,22.8-4.2,52-9,77.6
					c13.5,0.2,29.4-3.7,40.5-9.9C1197.7,604.6,1196.1,605,1194.4,605.5z"/>
				<path class="st2" d="M1162.5,529.4c2.4,0.5,6,1.6,8,2.3c-7.3-15.8-32.6-17.6-42.1-3.1C1139.3,526.4,1151.6,527.2,1162.5,529.4z"
					/>
				<path class="st2" d="M1245.4,529.6c-13.9-14.8-40.8-14.8-54.7-0.1c18-3.5,38.5-2.8,56.3,1.9
					C1247,531.4,1246.5,530.8,1245.4,529.6z"/>
			</g>
			<g>
				<path class="st2" d="M1239.1,611.6c-14.1,15.5-38.6,22.7-58.9,17.3C1200.5,630.1,1222.8,623.6,1239.1,611.6z"/>
			</g>
			<path class="st8" d="M1327.5,422.6c1.7,24.1-1.6,53.9-0.6,53.7l-21.8,53.8l-0.1,30.7l-10.7,6.6l-4.9-46.1l-23.1-32.6l24.4-61.3
				L1327.5,422.6z"/>
			<path class="st2" d="M1132.2,475.2c-22.7-1.7-40.5-29.9-40.5-29.9l21.7-9.7l-3.9-45.9c0,0,16.4,3.6,28.3-3.8
				c11.9-7.4,54.9-44.5,90.6-40.1c35.6,4.5,86.1,14.8,86.1,14.8l-7.6,13.4l10.2-2.2l17.6,43.5v27c0,0-30.6,13.4-36.5,20.8
				c-5.9,7.4-31.9,25.6-31.9,25.6l-20.1-31.6C1246.1,457.2,1205.4,488.7,1132.2,475.2z"/>
			<path class="st2" d="M1338.2,522.6c-0.3-5.7-5.2-10.7-10.3-9.7c0,0,0,0,0,0c0,0,0,0,0,0c1.3-9.3,4.9-21.9,7.2-29.5
				c0.6,4.5,0.8,5.8,0.8,5.8c0,0.9,0-5.3-0.2-9.8c-7.6,10.3-13.7,31.2-15.2,46.1c0-0.2,0.1-0.5,0.1-0.7c-1,6.3-1.9,12.7-2.5,16.3
				c3.1-7.3,5.8-14.9,9.4-21.9c1.6-0.8,3.8-0.5,4.9,1.2c5.9,10.9-9.4,22.7-6.3,33.5C1326.1,542.7,1339.8,535.2,1338.2,522.6z"/>
		</g>
		<g>
			<g>
				<polygon class="st9" points="999.3,870.7 996.5,878 1306.8,1054.2 1308.6,1044.5 1254.3,901.2 				"/>
				<polygon class="st8" points="996.5,878 1064,1025.2 1306.8,1054.2 1251.5,908.5 				"/>
			</g>
			<g>
				<path class="st7" d="M1000.3,932.3l17.1-16.1l29.7-9.2l55.9,18.3c0,0-12,6.5-26.5,11.2l21,10.5c0,0-2.9,7-9.1,10.7l-14.2,6.4
					l23.8,7c0,0-1.5,4.3-10.1,9.4c-8.6,5.1-14.7,3.4-14.7,3.4l25.5,9.7c0,0-30,10-40.7,10.2c-10.8,0.2-22.9,2.6-22.9,2.6l-1-15.8
					l-12.1-8.3l-0.9-18.9l-14.6-4.3l0.7-15.4L1000.3,932.3z"/>
				<g>
					<path class="st2" d="M1036.3,932.3c3.7-1.6,7.7-4.1,11.7-5c8.4-1,24.4,9.9,30.5,11.1c-31-21.4-31.2-16.2-61.2,2
						C1019,939.8,1031.6,934.5,1036.3,932.3z"/>
					<path class="st2" d="M1068.9,963.8c2.8-0.6,5.4-1.5,7.1-2.1c-12.2,1.2-37.5,1.1-49.7-0.3
						C1037.3,966.1,1057.2,967.2,1068.9,963.8z"/>
					<path class="st2" d="M1075,984.6c-11.2,3.2-25,3.7-36.6,4c12.1,3.9,26.1,3.8,26.1,3.8S1076,984.4,1075,984.6z"/>
				</g>
			</g>
		</g>
		<g>
			<path class="st4" d="M1485.6,680.7c-5.9-1.6-67.5,34.4-71.7,41.5c-4.2,7.1-33.2,108.9-33.2,108.9l-37.3,63.2
				c0,0,60.6,105.8,64.9,105.8c4.2,0,29.6,22.6,29.6,22.6l39.8-74.8l1.1-26.7c0,0,30.2-52,26.8-63.5c-3.4-11.4,2.8-79,4.2-90.3
				c1.4-11.3-8.5-76.2-8.5-76.2L1485.6,680.7z"/>
			<g>
				<path class="st2" d="M1452,935.6c-0.3-3.2-0.7-6.3-1.1-9.4c-1.2-0.8-2.2-1.8-3.3-2.7C1449.2,927.4,1450.7,931.4,1452,935.6z"/>
				<path class="st2" d="M1470.6,868.7c-24.7-10.6-67.6-21.2-102.1-17.2l-1.4,2.4C1401.7,850.7,1445.2,860.6,1470.6,868.7z"/>
				<path class="st2" d="M1389.1,874.8c-7.6-6.4-15.2-12.9-22.7-19.5l-5.8,9.9l-1,1.8l-16.1,27.3c15.5,25.3,45.1,81.3,64.9,105.8
					c7.3,2.3,24.4,18.3,29.6,22.6l10.7-20.1l5.6-10.5c0-17.6,0.5-35.6-3-52.9c3.8,15.4,5.7,31.3,6,47.2c8.4-15.4-6.8-57.8-14.4-73.5
					c1.3,3.2,2.5,6.4,3.6,9.6c-19.8-16.4-38.6-34.8-61.3-46.3c28.8,11.9,56.2,28.5,79.1,48.2
					C1443.4,903.5,1417.2,886.3,1389.1,874.8z"/>
				<path class="st2" d="M1477.8,944.4l0.5-12.1c-4.2-20.9-12.9-41.5-24.8-58.2C1465.4,895.2,1473.8,919.7,1477.8,944.4z"/>
				<path class="st2" d="M1498.9,881.9c0.5-1,0.9-2.1,1.3-3.1c-12.4-46.3-34.2-91.3-62.3-128.7
					C1464.1,789.5,1485.2,835.4,1498.9,881.9z"/>
				<path class="st2" d="M1476.5,694.5c11.6,47.5,21.4,100,28.1,150.7C1504.2,794.6,1489.6,740.9,1476.5,694.5z"/>
				<path class="st2" d="M1395.5,802.9c9.9-13.5,20.7-28.2,26.7-36.4c-7.9,9.5-24.5,30-33.7,41.8c9-3.5,22.9-9.2,32.5-12.9
					c-9.5,7.5-27.1,21.8-39.3,31.9c-0.1,0.5-0.3,1-0.4,1.4c21.6-15.9,37.2-28,57.4-43.7C1426,790.2,1408.6,797.1,1395.5,802.9z"/>
				<path class="st2" d="M1409,735.7c-0.4,1.3-0.9,2.7-1.3,4.2c20.8-16.1,45.5-28.1,70.4-34.2C1453.4,709.1,1429,719.9,1409,735.7z"
					/>
			</g>
		</g>
		<g>
			<g>
				<path class="st2" d="M1266.4,669.2c-54.7-5.5-70.5-3.6-70.5-3.6l6.8,12.8l-9.2-2.1l-0.4,31.5l17.7,42.5c0,0,31.2,48.1,31.2,43.3
					c0-4.9-7.5-90.1-7.5-90.1L1266.4,669.2z"/>
				<path class="st7" d="M1286.7,692.3l-15.7-8.7l-4.6-14.5l-61.9,0.8l8.8,25.8l-12.9,19.5l6.6,12.2l0,6.9l12.5,13.7l-5.7,10.2
					l19,13.3l14.3,33.7l25.8,6.8c0,0,12.8,19.9,14.2,22.9s60.2,165.6,76.1,174.7c15.9,9.1,61.6,15.4,67.8,17.1s22.1-65.2,18.8-79.4
					c-3.3-14.2-125-136.2-128.9-140.3c-3.9-4-12.9-45.8-12.9-45.8l-9.9-18.9l1.1-18.8l-9.7-15.2L1286.7,692.3z"/>
				<g>
					<path class="st2" d="M1236.3,693.4c9.1-2.1,15-4.4,21.7-8.1c-6.8,1.8-12.5,3.1-20.7,4.9c-3.9-2.1-11.2-5.4-15-6.9
						c1.6,3.1,7.2,7.2,11.4,7.7c-6.6,1.5-16.3,3.8-20.5,4.8C1218.5,695.9,1228.5,695.2,1236.3,693.4z"/>
					<path class="st2" d="M1271.9,694.5c0.7-2-63.1,28.5-61.1,29.2C1210.1,725.7,1273.9,695.2,1271.9,694.5z"/>
					<path class="st2" d="M1267.2,725.2c5.1-2.1,8.2-3.4,8.2-3.4c-17.4,3.1-41.3,13.5-55.3,24.2
						C1231.1,740.8,1255,730.2,1267.2,725.2z"/>
					<path class="st2" d="M1260.7,756.2c-17.4,8.1-18.2-3.3-14.2,14c-3.8-0.6-12.1-2.2-14.9-2.3c3,1.2,11.2,4.1,15.4,5.2
						c-0.4,5.4,4.4,25.2,4.8,24.8c0.5,0.5-0.6-19-2.6-24.2c0.2,0.1,0.5,0.1,0.7,0.2c-0.6-3.3-1.6-8.1-2.2-11.5
						c5.5-0.8,11-3.5,14.6-6.9C1261.9,755.6,1261.3,755.9,1260.7,756.2z"/>
				</g>
			</g>
			<polygon class="st8" points="1270,823.7 1316.6,787.8 1342.1,822.3 1291.6,857.3 			"/>
		</g>
	</g>
	<g>
		<g>
			<g>
				<path class="st10" d="M939.4,1104.6c2.5,12.6,10.3,48.6,10.3,48.6s-1.5,41,7.4,63.8c13.2,33.7,24.9,59.5,42.5,137.6
					c1.9,8.4-3.5,19.9-3.5,19.9s10.2,17.1,18.2,19.9c8,2.8,47.3,3.8,47.3,3.8l31.4-0.9l-20.7-7.6l24.9-7.6c0,0,28.8,10.9,43.4,6.6
					c14.6-4.2,21.2-4.1,21.2-4.1s-35.7-4.7-44.1-10.2c-8.3-5.6-31.7-15.1-31.7-15.1l-45.9-15.3l-30-209.9l-4.4-57.9L939.4,1104.6z"
					/>
				<g>
					<path class="st7" d="M1140.6,1388.7c14.6-4.2,21.2-4.1,21.2-4.1s-23-3-36.4-7.1c0,0-0.1,0-0.1,0c-3.2-0.9-29.7-7.2-29.7-7.2
						l-23,5.4c0,0-25.4-4.7-27.5-7.6c-1.7-2.3-32.3,3.2-48.1,4.2c-0.5,1.3-0.9,2.1-0.9,2.1s10.2,17.1,18.2,19.9
						c8,2.8,47.3,3.8,47.3,3.8l31.4-0.9l-20.7-7.6l24.9-7.6C1097.2,1382.1,1126,1393,1140.6,1388.7z"/>
					<path class="st7" d="M1005.7,1076.2l-66.4,28.4c2.5,12.6,10.3,48.6,10.3,48.6s-0.9,26.3,3.3,48.5
						c17.2-21.9,39.5-51.3,56.7-74.5L1005.7,1076.2z"/>
				</g>
			</g>
			<path class="st9" d="M942.4,878.5c20.6,1.8,61.2,23.8,59.2,27.8c-2.1,4-4.4,43.7-4.4,43.7s35.4,87.9,35.3,91.9
				c-0.2,3.9-21.3,40.1-21.3,40.1l3,18.2c0,0-24.4,18.9-75.1,20.7l-9.7-14.6c0,0-29.4-4.5-33.2-13.9c-3.8-9.4,0.5-130,0.5-130
				L942.4,878.5z"/>
			<path class="st2" d="M968.4,1103.3L968.4,1103.3c12.9-5.3,25.6-11,38-17.4l-45,17.9l-2,0.2c0.2-1.5,0.3-3.1-0.3-4.8
				c16.8-10.6,32.6-22.6,45.2-33.5c-10.6,7.1-32.1,21.6-46.6,31.2c-13.6-8.2,0-16.5,6.6-24.4c16.2-18.1,26.7-32.1,37.5-48.2
				c-12.2,15-23.5,28.4-39.7,46.4c14.9-25.9-17.1-13.8-17.5-32.7c8.6-9.7,20.6-22.9,25.9-27.7c-4.6,3.8-17.1,14.1-25.9,21.3
				c0.1-1.9,0.4-3.8,0.7-5.7c12.4-11.1,24.5-24.5,34.1-37.2c-9.5,10.3-21.1,21.9-32,31.7c21-32.1,36.6-69.8,44.8-106.1
				c-10.2,34.6-33,86.4-54.8,111.8c-0.4-9.2,22.6-51.2,25.9-60c0,0,2.3-8.8,3.7-21.3c4.5-12.1,9.5-27.7,12.6-39
				c-3,8.5-8,22.1-11.8,31.6c1.2-15.3,0.7-33.8-5.7-48.3c0,0-9-5-19.4-10.5c-0.1,0-0.1,0-0.2,0l-45.7,83.9c0,0-4.3,120.6-0.5,130
				c3.8,9.4,33.2,13.9,33.2,13.9l9.7,14.6c0.8,0,1.7-0.1,2.5-0.1l15.1-9.8c-0.4,2.7-0.8,5.7-1.2,8.7c0.4-0.1,0.9-0.1,1.3-0.2
				c0.6-3.4,1.2-6.8,1.7-9.7L968.4,1103.3z M942.1,1028.7c-0.1,0.5-0.1,1-0.2,1.5c-0.1,1.2-0.2,2.5-0.3,3.7
				c-3.8,3.1-6.5,5.3-6.5,5.3C936.5,1035.4,939.3,1031.9,942.1,1028.7z M938,1054.1c0,0-0.3-8.4,4.1-13.3c0.1,0.4,12.3,11,18.8,14.8
				c9.9,10.5-24.6,42-31,49.4l7.6-22.2L938,1054.1z M930,1106.3c6.5-5.7,12-10.8,19.4-18.2c-0.1,1.7,0.3,3.4,1.1,4.9
				c1.1,2.3,3.6,3.5,5.4,5C944.6,1106.5,943.5,1105.3,930,1106.3z M957.6,1103.5c0,0.2-0.1,0.5-0.1,0.7l-7.5,0.6
				c2.4-1.4,4.8-2.9,7.4-4.5C957.7,1101.2,957.7,1102.4,957.6,1103.5z"/>
		</g>
		<g>
			<path class="st8" d="M545.2,1115.5c-52.8,33.5-94.2,132.2-96.6,154.1c-2.4,21.9-0.7,278.8,6.8,280.4c7.5,1.6,102.1-11,110.6-15.4
				c8.5-4.5,189.5-58.3,189.5-58.3s-19.1-238.8-23.9-237.6S545.2,1115.5,545.2,1115.5z"/>
			<g>
				<g>
					<path class="st9" d="M812.6,850.2c-26.2,15.8-91.4,51.5-107.1,67.2c-15.8,15.8-89.3,154.4-97.7,157.6
						c-8.4,3.2-82.2,43.2-82.2,43.2s-22.7,68.3-14.9,97c7.8,28.7,79.3,107.7,92.9,116.1c13.7,8.4,64.1,14.4,64.1,14.4l88.7-15.7
						l-3.6-68l15.8-14.6l-5.3-18l23.1-16.8v-20c0,0,72.4-52.4,75.1-52.7c2.7-0.3,52.9-21.6,56.2-26.1c15.2-20.5,20-86,20.4-94.8
						c0.4-8.8,17-53.7,18.7-60c1.7-6.3,18.9-43.5,5.2-69.8C948.3,863,812.6,850.2,812.6,850.2z"/>
					<g>
						<path class="st2" d="M666.9,1197.7c22.4,28.3,58.1,49.6,94.5,56.4C726,1244.7,691.3,1223.9,666.9,1197.7z"/>
						<path class="st2" d="M616,1294.7c-14-4.2-28.7-14.2-39.3-26.5c2.7,6.3,6.4,13.9,8.8,20.1c-15.8-8.7-31.5-22.1-43.3-34.1
							c7.4,11.9,13.9,23.5,19.6,34.8c1.7,2,3.4,3.9,5.1,5.8c-3.5-7.8-7.5-16.1-12.4-25.1c10.9,9.8,23.8,18.2,36.8,24.8
							c-2.5-5.5-5.1-11-7.7-16.4c13.2,11.8,31.5,18.9,47.3,20C627.2,1297.5,621.9,1296.6,616,1294.7z"/>
						<path class="st2" d="M579.6,1255.7c-32.7-38.4-41.5-98.3-21.4-144.5c-16.4,30.9-17.6,72.3-4.2,104.9
							C559.5,1230.2,569.5,1245.5,579.6,1255.7z"/>
						<path class="st2" d="M819.6,1033.1l-8,26l-3.6-38.2c17.4,15.5,38.7,26.7,60.5,32.2c0,0-1.6-0.6-4.6-1.7
							c-20.6-7.9-39.7-19.6-56.5-34.8c0,0-30.3-90.1-30.3-90.1l-9.1-4.9c13.1-24.9,30.6-49.8,49.8-70.9c-0.6-0.1-1.1-0.1-1.6-0.2
							c-20.6,19.7-38.2,44.7-49.4,70.5L736.8,905L677,961.2c-14.4,43.1-16.7,81.7-14.4,87.5c2.3,5.8,33.9,86.6,33.9,86.6l-48-36.3
							l40.9,45.6l1.3,2.5c-6.4,9.9-16.9,41.4-32.1,25.8l-2.3,1.4c0,0.1,0.1,0.1,0.1,0.2l0,0c4.2,6.4,0.3,14.5-4.3,20.1
							c-20.1-37.5-34-81.4-39.9-124.6c-0.5,0.7-0.9,1.3-1.4,1.8c4.7,43.5,18.5,87.7,39.7,124.7c-16,13.8-4.8,31.4-16.9,35
							c-6.5,0.8-15,1-18.8,7.3c-15.7-11.1-33.9-28-45.9-41.5c11.4,14.2,29.1,31.8,44.7,43.3c-8.6,13.5-0.7,35.1-14.4,45.2
							c14.1-9.2,7.3-31,15.9-44.1c38.9,29.8,89.8,48.9,139.3,53l-0.1-1.1c-48.9-5.8-98.7-25.1-137.9-53.6c4.2-6,10.9-5.1,17.8-6.1
							c14.7-4,3.5-23.2,17.9-34.7c9.5,17,24,37.1,36,50.9c-11.4-14.6-25.3-35.3-34.5-52.7c4.5-5.3,8.1-12,7.3-18.8
							c18,6.2,23.9-18.5,30.8-29.7l9.5,18l-8.2,32.7l41.5,13.3l-0.4,19.3l25.1,20.1c-16.8-8.7-39.8-23.4-54.6-34.9
							c13.1,13.5,36.7,28.6,54.7,35l2,1.6l7.1-6.6l-5.3-18l23.1-16.8v-20c0,0,47.7-34.5,67.1-47.7l6-17.4l-35.9-39.1L819.6,1033.1z"
							/>
						<path class="st2" d="M966.6,917.5c-14.4,41.3-34.7,89.7-53.9,128.8c22.4-37.4,42.7-85.6,54.3-128.4c0-0.6,0.1-1.2,0.1-1.8
							C967,916.6,966.8,917,966.6,917.5z"/>
						<path class="st2" d="M866.1,1123.2c9.7,1.3,21.6,1.4,33.5,0.6c2.5-1.2,4.8-2.3,6.9-3.3c-1.3,0.1-2.7,0.2-3.9,0.3
							C890.2,1122,874.3,1122.9,866.1,1123.2z"/>
						<path class="st2" d="M609.5,1186.8c-2.2-34.4-3.4-73.5-3.5-111c-0.7,0.3-1.6,0.7-2.5,1.2c-0.4,20.2-0.1,40.7,1.2,59.2
							C605.6,1153.7,607.5,1172.3,609.5,1186.8z"/>
						<path class="st2" d="M585.4,1159.9c-0.5-23.3,0.4-49.5,2.3-74.9c-0.9,0.5-1.8,1-2.8,1.5c-1.8,19-2.3,38.5-1.1,55.9
							C584.2,1149.1,584.9,1155.7,585.4,1159.9z"/>
						<path class="st2" d="M669,1093.9c-14.8-15.3-28-33.4-38.5-52.8c-0.6,1-1.1,1.9-1.7,2.8C639.2,1063,652.9,1080.3,669,1093.9z"
							/>
						<path class="st2" d="M529.7,1116c-2.1,17.9-1.8,36.1,0.8,53.3c-0.8-17.8,0-36.5,2.3-54.9
							C531.6,1114.9,530.6,1115.5,529.7,1116z"/>
						<path class="st2" d="M652.1,1323.8c33.5,4,70.4,0.9,103.5-8.5l-0.1-1.3C722.2,1321.1,685.7,1324.5,652.1,1323.8z"/>
					</g>
				</g>
				<g>
					<path class="st10" d="M812.6,850.2c-12.3,36.5-39.5,66.1-36.7,72.1c2.8,6.1,17.3,80.1,29.4,85.4c12,5.3,73.5,49.4,79.8,46.2
						c6.3-3.2,59.7-81.1,55.6-88.3c-4.1-7.3-2-76.1-2-76.1L812.6,850.2z"/>
					<path class="st7" d="M939.4,960.4c-2.3-18-0.7-70.7-0.7-70.7l-126.1-39.4c-4.1,12.1-9.8,23.5-15.6,33.5
						c5.5,40.1,33.2,75.6,56.7,99.3c-18.6-0.6-47-1.2-61.4-0.3l5.1,13.8l59.5-10.3c13.5,13.2,25.1,22.2,29.5,25.5
						c0.5,13.1,0.8,34-1.3,42.3l8.9-10.1l-5.8-30.9L939.4,960.4z"/>
				</g>
			</g>
		</g>
		<g>
			<path class="st10" d="M970.9,857.9c6.2-16.1,9.6-28.5,9.6-28.5l9.6-60c0,0-38-52.8-45.5-57.2c-7.5-4.5-94.2-5.8-94.2-5.8
				l-38.9,71.6C793.3,838.8,801,894.1,801,894.1s22.6,52.5,35.9,67.9c39.7-0.4,78.6-29.1,94.5-40.7c4.1-3,8-6.9,11.7-11.3
				c5.2-1.5,11-3.1,16.5-5c17.1-5.6,23.5-49.5,23.5-49.5S978.6,855,970.9,857.9z"/>
			<g>
				<g>
					<g>
						<path class="st2" d="M823.5,854c0,0-3.5-5.4-2.2-10.6c1.3-5.2,7-8.4,7-8.4s3.5,5.4,2.2,10.6C829.2,850.9,823.5,854,823.5,854z
							"/>
					</g>
					<g>
						<path class="st2" d="M892.2,874.7c0,0-3.5-5.4-2.2-10.6c1.3-5.2,7-8.4,7-8.4s3.5,5.4,2.2,10.6
							C897.9,871.6,892.2,874.7,892.2,874.7z"/>
					</g>
				</g>
				<g>
					<path class="st2" d="M818.7,809.4c14-6.1,41.4,12.5,41.4,12.5S844,787.1,818.7,809.4z"/>
					<path class="st2" d="M883.7,831.8c19.2,4.8,43.6,16.8,43.6,16.8S931.6,824,883.7,831.8z"/>
				</g>
				<path class="st2" d="M854.6,903.3l-19.7-11.3c0,0,18-28.5,22-47.6c-8.7,19.7-36.6,47.8-36.6,47.8
					C828.5,894.6,854.6,903.3,854.6,903.3z"/>
				<g>
					<g>
						<path class="st2" d="M868.8,919.6c-2.6-1.2-10.3-6-10.3-6s-5.6,0.3-8.3,0.5c-2.8,0.2-7.5-6.5-7.5-6.5s-13.9-0.9-18.6-2.1
							l1.2-6.6l-5.6,3.7l6.4,5.4l1.9,7.6c0,0-0.2,18.6,12.7,24c20.3,8.5,34.3-10.5,37.1-12.3c2.8-1.8,8.5-2.3,8.5-2.3
							S874.6,922.2,868.8,919.6z"/>
						<polygon class="st11" points="886.6,917.1 886.2,925 889.8,927 						"/>
					</g>
					<path class="st1" d="M827.9,908.4c27.3,13.1,50,15.5,50,15.5s-15.2,7.2-28.9,6C835.1,928.7,827.9,908.4,827.9,908.4z"/>
					<path class="st1" d="M845.6,935.8c0,0-3.9,1.6-7.5,0c-3.6-1.6-5.5-5.8-5.5-5.8s3.9-1.6,7.5,0S845.6,935.8,845.6,935.8z"/>
				</g>
				<path class="st2" d="M975.9,861.2c-9.1,5.7-16.6,14.1-21.8,23.6c4.6-1.3,9.4-2.7,13.8-4.4c0,0,0,0.1,0,0.1
					c-2.1,5-8.9,12.8-13.2,15.9c7.7-3.9,15-12.1,18.7-20.5c-4.1,1-8.1,2.3-12.2,3.5l0,0l0,0l0,0c0,0,0,0,0,0
					c3.6-5.6,8.2-10.5,13-14.9c0.1,2.2-0.1,7.4-0.1,8.8C974.5,870.5,975.5,864.6,975.9,861.2z"/>
			</g>
			<path class="st2" d="M1017.3,777.8c7.2,5.5,16.2,9.9,24.6,12c0,0-0.8-0.4-2.3-1.1c-12.6-6.1-24.9-14.2-31.4-27.1
				c0.1-3.5-0.2-7.2-0.9-10.6c3.3,5,6.9,10.8,9.6,15c-2-11.6-8.1-24.8-16.3-34.3c7.5,1.9,16,0.3,21.6-3.6c-7.4,1.4-14.7,1-22.8-2.6
				c0,0,0,0,0,0c1.5-0.5,3-2.1,3.7-3.8c7.8,5.2,15.1-5.8,10.7-12.7c3-2.4,4.1-4.8,4-7.1c1.5,3.6,2.5,7.4,2.8,11.2
				c2.2-10.1-1.3-22.7-9.1-30.8c-0.5-2.8-0.4-5.8-0.6-8.7c-2.2-1.9-4.4-3.9-6.6-5.8c0,0,0,0,0,0c0,0,2.2-0.2,4.7-0.8
				c-3-4.7-6.2-9.4-10.8-12.7c4,0.4,17.2,2.3,17.5,2.3c-9.8-6.1-24.3-7.2-35.9-12.3c4.9-0.7,8.4-5.2,10.3-9.5
				c-7.3-0.9-16.4-0.6-24.1,0.5c0-0.1,0.2-0.2,0.3-0.2c2.7-2.3,3.6-7,0.9-9.8c1.3-0.8,3.4-1.8,4.6-2.2c-6.4-2.5-15.8-0.1-19.8,5.7
				c0,0.2-0.9,1.3-0.9,1.2c0.2-0.3,0.1-0.8,0-1.2c-1-5-5.4-9.7-10.7-9.3c1.3-1.1,2.5-1.9,3.4-2.4c-4.3,2.2-11.2,4.3-12.8,9.6
				c-5.5-2.7-12.8,1.2-13.8,7.6c-0.1,0-0.2-0.1-0.3-0.1c-0.5-13.6,10-30,24.5-29.2c-16.2-6.2-32.2,13.5-29.7,29.3
				c-6.1,2.3-8.1,9.7-6.7,15.6c0,0,0,0,0,0c0,0,0,0,0,0l0,0c-10.9-6.9-28.8,4.8-18.3,16.6c-17.3-5.3-37.8,0.5-49.5,12.5
				c12-6.8,24.5-10.4,41.1-8.4c-3.3,0.5-6.4,2.9-7.2,6.3c-18.5,2-35.3,7.2-51,15.3c-11.1-0.6-23.4-3.7-33.2-7.8
				c8.3,4.7,19.3,8.5,29.3,9.9c-19.4,12-40.2,22.3-46.9,45.2c5.5-10.8,14-20.6,24.3-27.7c-12.4,12.4-13.8,35.9,1.5,46.9
				c-15.4,6-34.3,4.3-48.8-2.6c10.2,7,23.4,10,36.1,8.6c-16.6,7.9-26,35.8-5.6,45c-14.6,5.6-22.1,30.7-3.2,35.3
				c1.5,0.4,3.4-0.1,4.4-0.8c-5.9,5.6-5.8,16.3-0.7,22.2c-8,12.2-9.7,30.4,1.3,40.5c-8.8,29,4.9,62.4,30.1,77.3
				c-21.3-16.2-33.3-46-25.4-73.7c2.9,1.8,7.3,2.6,9.6,2.4c-2.3-0.1-6.6-1.4-9.3-3.5c3.8-20.8,24.7-30.7,20.1-41.7
				c-3.6-8.7-1.7-18.6,5.2-25c8.8-8.1,14.4-16.8,1.1-21.9c-10.9-13.4,13.8-20.3,21-25.6c10.5-2,21.9,0.9,31.8-6.3
				c-4.4,11.3,0.9,30.7,4.9,41.1c-3.1-12.1,12-60,23.5-64.1c27.2,2.4,25.1,26.8,26.4,27.1c0.2,0.8,28.6,9.5,22.6,25.8
				c-12.5,34-32.7,62.4,3.1,90.6c9.8,31.1-37.5,42.9-17,99.1c-5.4-17.7-3.7-38.4,6.3-55.3c4.8-8.5,13.9-17.5,16.7-28.3
				c2.2,20.7-29.5,36.1-18.6,57c-8-30.2,37.6-34.6,18.3-73c5,1,10.1,1.1,15.2,0.5c-0.7,0.3-7.8,8.1-8.1,8.2
				c16.9-2.7,34.6-17.7,44.6-41c14.2-12.6,18.2-29.9,21.3-46.7c5.5,19.1-3.1,42.6-18.2,54.2c18.8-10.7,28.3-38.5,19.1-58.9
				C1025.3,809.5,1023.6,792.7,1017.3,777.8z M1008.2,761.6L1008.2,761.6C1008.2,761.5,1008.2,761.5,1008.2,761.6
				C1008.2,761.6,1008.2,761.6,1008.2,761.6z M804.3,702.6c0.9-0.5,1.8-1,2.9-1.5c-2.3,1.3-4.5,2.9-7,3.8
				C801.1,704.3,802.5,703.5,804.3,702.6z M775.8,861.5c-1.8-5.2-0.3-12.2,3.9-16.1c0.1-0.7,0.3-1.6,0.8-2.2
				c0.3,4.6,1.6,9.4,4.1,13.4c-2.5,2.8-4.8,5.8-6.8,8.9C776.9,864.3,776.3,863,775.8,861.5z M795.5,866.1c11.4,5.7-13,19.3-16.6,39
				c-8.3-9.9-5.7-25.1,1.6-35.5c3.5,2.6,7.8,3.5,11,3.3c-3.2,0-7.3-1.2-10.6-4c2-2.9,4.3-5.7,6.8-8.4
				C789.9,862.8,793,864.5,795.5,866.1z M945.8,878.3c1-5.8,9.9-3.6,13.7-8.2c13.7,5.8,18-12.6,22.7-13.5c0.1,0.1-0.1,0.4-0.1,0.5
				c-2.7,17.5-9.9,38.4-27.9,43.6C965.1,882.7,946.2,886,945.8,878.3z"/>
		</g>
	</g>
	<path class="st2" d="M199,1225.2c-64.2,0.3-99.2,39.7-101.4,48.4c-2.2,8.8,211,547,211,547l110.3-141.2L199,1225.2z"/>
	<path class="st2" d="M1745.7,1153.3c49.3-30.5,126.9,13.1,126.9,13.1s-81,383-87.5,378.6c-6.6-4.4-199.2-37.2-197-46
		C1590.3,1490.3,1745.7,1153.3,1745.7,1153.3z"/>
	<path class="st2" d="M367.2,1057.9c27.1,20.2,74.6,34.3,74.6,34.3s5.6,87,2.2,88.1c-3.3,1.1-77.9,6.7-77.9,6.7l-84.8-39.2
		l2.4-100.1L367.2,1057.9z"/>
	<g>
		<g>
			<path class="st12" d="M511,1161.7c26.1,42.4,81.7,116.9,81.7,116.9l22.6,35.1l-3,25.1c0,0-35.1,22.3-50.7,17.5
				c-15.6-4.8-90.2-139.3-90.2-139.3L511,1161.7z"/>
			<path class="st13" d="M448.1,1114.4c18.1,4.5,52.6-0.1,63.4,17.1c10.8,17.3,50.1,93.6,50.1,93.6l16.9,14.1c0,0-67,64.6-88.5,67
				c-21.5,2.4-53.9-12.9-53.9-12.9s-15.5-92.7-16.2-110.6C419.4,1164.9,448.1,1114.4,448.1,1114.4z"/>
		</g>
		<g>
			<g>
				<linearGradient id="SVGID_1_" gradientUnits="userSpaceOnUse" x1="480.0586" y1="941.4221" x2="480.0586" y2="884.3589">
					<stop  offset="0" style="stop-color:#FFFFFF"/>
					<stop  offset="1" style="stop-color:#000000"/>
				</linearGradient>
				<path class="st14" d="M470.6,920.8c-0.3-2.5-0.4-5.2-0.4-8c0-15.4,4.4-28,9.9-28c1.9,0,3.6,1.5,5.1,4.1
					c-3.6,7.7-7.2,15.5-10.7,23.3C473.2,915.1,471.9,918,470.6,920.8z M489.9,909c-0.2-5.1-1-9.8-2.1-13.6c-3.3,7-6.5,14-9.7,21.1
					c-2,4.4-4,8.8-6,13.2c0.7,2.7,1.6,5.1,2.7,6.9C479.7,927.3,484.7,918.1,489.9,909z M476.2,938.6c1.2,1.4,2.5,2.2,3.8,2.2
					c5.4,0,9.8-12.2,9.9-27.5C485.2,921.7,480.7,930.1,476.2,938.6z"/>
				<g>
					<path class="st2" d="M480.1,941.6c-5.9,0-10.5-12.6-10.5-28.7c0-16.1,4.6-28.7,10.5-28.7c5.9,0,10.5,12.6,10.5,28.7
						C490.6,928.9,486,941.6,480.1,941.6z M480.1,885.6c-5,0-9.3,12.5-9.3,27.2c0,14.8,4.2,27.2,9.3,27.2c5,0,9.3-12.5,9.3-27.2
						C489.3,898.1,485.1,885.6,480.1,885.6z"/>
				</g>
			</g>
			<g>
				<path class="st15" d="M390,1040.7c35.1,17.9,67.3,13.7,67.3,13.7l0.8-38l11.1-9.6l-3.1-13l6.2-9.5l-3.4-17.8l30.2-12
					c-23.4-9.7-30.1-52.9-30.1-52.9l5.3-9.1c0,0-3.4-25-23.6-83.7c0,0-54.2-40-102.3-42.5c-48-2.5-101.3,91-101.3,91l17.5,96.2
					c0,0,34.2,42.8,36.5,48.1s1.7,43.1-12.1,79c0,0,42.3,61.4,51.3,67.4c9.1,6,81.5,23.1,81.5,23.1S389,1093.9,390,1040.7z"/>
				<path class="st12" d="M322.8,993.8c0,0-11.7,0.9-25.5,2.2c1.9,2.7,3.3,4.8,3.7,5.7c2.2,5.3,1.7,43.1-12.1,79
					c0,0,42.3,61.4,51.3,67.4c9.1,6,81.5,23.1,81.5,23.1s-22.5-53-29.6-101.4C374.2,1053.7,333.2,1013.6,322.8,993.8z"/>
				<path class="st16" d="M390,1040.7c-12.5-4.7-43.9-23.6-46.6-25.4c-2.7-1.8-20.6-21.5-20.6-21.5s23.5,58.5,69.8,79.2
					C390.9,1061.8,389.8,1050.8,390,1040.7z"/>
			</g>
			<path class="st2" d="M339.8,969.8c-4.7-4.5-16.8-17.2-15.4-24.6c3.2-2.2,6.5,1.7,8.9,3.6l4.8-4.2c-7.5-9.8-14.7-18.1-24.6-24.6
				c-0.1,0-0.5-0.5-0.6-0.2c-3.9,6.4-6.1,14.9-6.1,21.1c1.5-4.7,3.3-10.4,7.3-15.4c4,4.1,7.6,8.4,11.3,13
				c-19.1,6,6.8,28.3,15.2,31.8C340.6,970.5,340.3,970.3,339.8,969.8z"/>
			<g>
				<path class="st2" d="M453.5,916.2c-5,0-10.7-3.3-15.1-6.2c0,0.1-0.1,0.2-0.1,0.3c-8.3,5.9-26.7,11.5-25.4,10.8
					c-1.2,0.1,18.2-15.5,26.6-18.4C443.6,907.6,448.4,913,453.5,916.2z"/>
			</g>
			<path class="st1" d="M468.3,984.2c-17,0-39.9,0.3-39.9,0.3s13.3,16.5,30.1,17.2C463.4,989.1,468.3,984.2,468.3,984.2z"/>
			<path class="st2" d="M458.1,1016.3c-11.4-0.8-22.2-9.1-22.2-9.1s10.8,14.2,13.8,14.2S458.1,1016.3,458.1,1016.3z"/>
			<g>
				<path class="st2" d="M401.5,893.5c22-17.2,46.9-18.2,46.9-18.2l11,9.3l-8.9-0.4L401.5,893.5z"/>
				<polygon class="st2" points="470.6,875 463.4,884.4 473.3,888.1 				"/>
			</g>
			<g>
				<g>
					<linearGradient id="SVGID_2_" gradientUnits="userSpaceOnUse" x1="453.7647" y1="947.7673" x2="453.7647" y2="884.3872">
						<stop  offset="0" style="stop-color:#FFFFFF"/>
						<stop  offset="1" style="stop-color:#000000"/>
					</linearGradient>
					<path class="st17" d="M440.8,924.9c-0.4-2.8-0.6-5.8-0.6-8.9c0-17.2,6.1-31.1,13.6-31.1c2.6,0,5,1.7,7.1,4.5
						c-5,8.6-9.9,17.2-14.7,25.8C444.3,918.5,442.5,921.7,440.8,924.9z M467.2,911.8c-0.3-5.7-1.3-10.9-2.8-15.1
						c-4.5,7.8-8.9,15.6-13.3,23.4c-2.7,4.9-5.5,9.8-8.2,14.6c1,3,2.2,5.6,3.7,7.7C453.2,932,460.1,921.8,467.2,911.8z M448.5,944.7
						c1.6,1.6,3.4,2.4,5.3,2.4c7.4,0,13.4-13.6,13.6-30.5C460.9,925.8,454.6,935.2,448.5,944.7z"/>
					<g>
						<path class="st2" d="M453.8,947.9c-8.1,0-14.4-14-14.4-31.9c0-17.9,6.3-31.9,14.4-31.9c8.1,0,14.4,14,14.4,31.9
							C468.2,933.9,461.9,947.9,453.8,947.9z M453.8,885.8c-6.9,0-12.7,13.8-12.7,30.2c0,16.4,5.8,30.2,12.7,30.2
							c6.9,0,12.7-13.8,12.7-30.2C466.5,899.6,460.7,885.8,453.8,885.8z"/>
					</g>
				</g>
				<polygon class="st2" points="441.9,901 319,901 319,902 441.9,904.5 				"/>
				<polygon class="st2" points="470.3,901.9 466.1,901.9 464.9,898.2 471.6,898.2 				"/>
			</g>
			<polygon class="st16" points="499,954.4 461.1,962.1 468.9,966.4 			"/>
			<g>
				<path class="st2" d="M498.7,766.3c-4.3,16.2-13.3,33.1-24.2,45.7c14.6-10.4,24.8-29.9,24.8-47.8
					C499.3,764.2,499.1,765,498.7,766.3z"/>
				<path class="st2" d="M495.3,767.7l-21,8.1c8.5-13.6,10.8-32.5,3.9-46.7c2,6.9,2.4,15.4,0.8,22.7c-2.5-10.9-9-19.7-9-19.7
					c-2.2,6.9-20.3,13.2-49.5,15.8c12.9-4.6,24.4-14.7,30.5-25.5c-38.7,45.5-64.5,15-114,13c-35.1-0.5-85.8,45.5-88.5,51
					c-2.8,5.5-2.6,30.3-2.6,30.3L214,844.7l7.7,59c10.4,34,49.9,89.5,61,94.3c11.1,4.8,18.5,28.6,18.5,28.6l32.1-40.3
					c0,0-12,5.1-14.4,2.1c-28.4-37.2-22.5-48.2-8-82.2c0,0,22.9,10.8,30.2,19.1l11.8,32.9l8.5-21c0,0-10.7-31.6-7.2-34.8
					c3.5-3.3,25.6-32.2,25.6-32.2s-0.9-21.5,2-35.5c59.8-40.6,73.5,20.9,111-19.1l-22-0.9C482.7,805.4,495.3,767.7,495.3,767.7z"/>
			</g>
		</g>
		<g>
			<path class="st13" d="M283.8,1047.8c36,23.1,89.9,43.8,92.2,47.8c2.3,4,11.4,52.9,13,55.5c1.5,2.6,32.8,20.1,32.8,20.1l10.4-38.9
				l9.7-40.1l19.1,17.9c0,0,40.9,19.1,44.3,30.2c3.3,11.1,39,148,39,148s84.6,169.2,77.9,173.6c-6.7,4.5-243.7,112.4-263.8,112.4
				c-20,0-69,7.8-69,7.8s-16.9-49.7-19.2-49c-2.4,0.8-21.7-96.3-22.5-98.9c-0.8-2.6-42.6-86.5-46.8-93.6c-4.2-7-23.8-88-24.9-92.4
				c-1.1-4.5-2.2-77.9-2.2-77.9s14.5-18.9,25.6-24.5c11.1-5.6,67.7-48,67.7-48L283.8,1047.8z"/>
			<g>
				<g>
					<path class="st2" d="M227.7,1372.2c0.3,1,1.3,1.8,2.6,2.6C228.5,1372.5,227.5,1371.4,227.7,1372.2z"/>
					<path class="st2" d="M374,1184.3c0.4,0.2-7.1-4.4-9.4-5.8c-35.6-22.3-69-51.8-96.3-84.9l-0.9,2.6
						C295.9,1133,333.5,1164.3,374,1184.3z"/>
					<path class="st2" d="M437.5,1275.5c-10.9,45.2-31.7,117.3-45.9,160.6c21.6-52.4,44-132.4,52.7-188.4
						C442.6,1254.3,440.1,1264.8,437.5,1275.5z"/>
					<path class="st2" d="M466.9,1248.9c-3-33.9-9-73.1-15.6-104.8c18.5,107.3,21.3,225.5,7.9,334.1c-13.8-5.1-77.7-29.1-78.8-33.2
						c-0.9-3.5-12.6-79.2-19.6-120.6c7.3-31.2,10.6-64.3,9.4-95.4c-0.3-8.9-1.4-22.2-2.3-29.7c1.7,38.5-1.2,79.5-8.2,118.6
						c-1.8-10.6-3.2-18-3.8-19.6c-2.7-7.9,3.5-53.6,3.5-57c0-3.5-11.7,38.9-11.7,38.9s-5.7-42.4-5.7-48.2c0-5.8-25.6-63.6-25.6-63.6
						l-2.6,20.6c-10.6-12.8-57.6-34.5-96.9-37.3c0,0-7.6-3-16.9-6.3c-0.3,0.2-0.5,0.3-0.8,0.4c-11.1,5.6-25.6,24.5-25.6,24.5
						s1.1,73.4,2.2,77.9c0.8,3.2,11.3,46.7,18.7,73c15.5,17.1,32.9,35.9,43.5,47.3c1.1,3.1,2.2,6.3,3.2,9.5c-3.7-0.7-8-1.8-10.8-3.3
						c3.4,4.3,9.7,12.9,16.2,21.8c3.3,12.4,5.9,25.2,7.6,37.7c2.9,11.7-0.9,28.9,11.6,35.6c3.6,1.8,8.6-0.4,11,3
						c-7-0.7-14.3-1.5-21.6-2.5c0.2,1.1,0.4,2.1,0.7,3.2c7.2,1,14.3,1.9,21.3,2.4c-2.6,6.8-4.6,15.9,3.2,20.2
						c-6.1-1.7-13.5-3.9-21-6c0.2,0.9,0.4,1.8,0.6,2.7c9,3.1,18.7,6.2,29.7,9.3c-0.7,3.2-1.2,6.5-1.7,9.8
						c-7.2,2.8-15.1,5.7-21.9,8.1c2,8.1,3.4,13.3,4,13.1c2.4-0.8,19.2,49,19.2,49s49-7.8,69-7.8c8.1,0,51.4-17.5,100.7-38.8
						l-20.5-13.6l19.6-36.1c-0.1,1.1-0.3,2.3-0.4,3.4c0.2-1.2,0.4-2.5,0.6-3.7l3.4-6.3c0,0-0.8-0.3-2.3-0.8
						C471.1,1405,473.9,1323,466.9,1248.9z M243,1378.4c-0.9-2.5-1.8-4.9-2.7-7.3c4.6,4.9,7.4,8,7.4,8S245.7,1378.8,243,1378.4z
						 M258,1439.5c-1.6-12.4-4.2-25.2-7.6-37.7c8.6,11.8,16.6,22.7,18.1,23.8c20.6,14.7,31.5,34.2,37.2,49.7
						c-8.6-0.6-17.5-1.4-25.7-2.2C272.5,1458.1,261.2,1483.3,258,1439.5z M288.1,1498.4c0.8,0,1.9-0.2,2.5-0.6
						c-0.1,0.3-0.2,0.9-0.3,1.2C289.6,1498.8,288.8,1498.6,288.1,1498.4z M289.7,1511.2c0.5-2.9,1.1-5.8,1.8-8.6
						c4.1,1.1,52.9,17.2,56.7,18.2C344.4,1522.4,294.9,1509.2,289.7,1511.2z M307.5,1503.8c-5.3-1.5-10.5-2.9-15.2-4.2
						c0.4-1.8,1.1-3.7,1.4-5.5c-5.9,4.2-14.8,1-16.3-6.3c-0.7-4.1,2.1-7.5,2.7-11.6c8.4,0.7,48.6,6,57.5,6
						c4.4,12.5-25.8,17.1-25.8,18.7C311.7,1501.5,310.2,1502.5,307.5,1503.8z"/>
					<path class="st2" d="M494.1,1231.5c13.3,63,38.2,194.3,48.8,257.8c-1.1-9.2-3-23.5-5.1-38.1
						C529.7,1389.4,509.9,1290.4,494.1,1231.5z"/>
					<path class="st2" d="M581.3,1426c-10.6-23.8-31-71.8-40.1-94.2c9.3,33.5,29.4,80.4,47.3,110.3
						C588.4,1442.1,585.7,1435.9,581.3,1426z"/>
				</g>
			</g>
			<g>
				<path class="st2" d="M376,1095.6c-8.9,11-8.8,72-8.8,72l-100.2-69.8l16.8-43L376,1095.6z"/>
				<polygon class="st2" points="468.1,1149.1 436.3,1139.9 441.8,1092.2 				"/>
				<path class="st13" d="M376,1095.6c-8.9,11-17.7,52.6-17.7,52.6l-91.3-50.4l16.8-50L376,1095.6z"/>
			</g>
		</g>
	</g>
	<g>
		<g>
			<path class="st15" d="M209.1,1141.3c44.7,11.2,91.9,39.6,98.1,57.9c6.2,18.3,28.7,80.8,37.2,100.1c44.4,37,116,174.4,116,174.4
				s-67.4,33.3-78.2,30.6c-10.8-2.7-84.6-90.1-99-103.5c-14.5-13.4-95.2-110.2-98.2-142.6C181.9,1225.9,156.7,1168.9,209.1,1141.3z"
				/>
			<g>
				<path class="st16" d="M374.4,1332.9c-10.6-14-20.8-25.9-30-33.5c-2.4-5.6-6-14.7-10.1-25.3c-23.3,22.9-60.6,62.5-84.7,88.4
					c15.1,18.8,28.3,33.7,33.4,38.4c3.2,3,9.5,9.7,17.3,18.4C314.4,1399.6,341.3,1364.1,374.4,1332.9z"/>
				<path class="st2" d="M362.9,1428.6c-1.1,11.4,19.2,75.9,19.2,75.9l59.1-65.8c-11.1-19.7-25.9-45.2-41.6-69.4
					C396.9,1365.1,363.8,1419.5,362.9,1428.6z"/>
			</g>
		</g>
		<g>
			<path class="st13" d="M265.9,1403.8c34.5-50.1,114.4-75.5,114.4-75.5l-35.4-39.1c0,0-24-88.5-40.8-105.3s-75.9-48.1-95.1-42.6
				c-19.2,5.5-39.5,34.8-39.5,34.8l10,100.2l55.6,81.2L265.9,1403.8z"/>
			<g>
				<path class="st11" d="M307.1,1312.3c-3.4,2.6-8.7,6.6-14,11c-15,11.7-34.1,30.4-50.2,48.3l1.3,2.3
					C265.4,1352.2,291.7,1326.4,307.1,1312.3z"/>
				<path class="st11" d="M345,1289.2c0,0-0.3-1.1-0.8-3c-9.7,5.3-19.4,11.9-24.5,16.9C320.2,1302.8,332.6,1296,345,1289.2
					L345,1289.2z"/>
				<path class="st11" d="M319.7,1303.1C319.7,1303.1,319.7,1303.1,319.7,1303.1C319.6,1303.1,319.6,1303.1,319.7,1303.1z"/>
				<path class="st11" d="M232.9,1354.1c3.7-6.9,7.4-14.2,11.3-22.3c10-3.4,18.8,8.2,14.8,16.6c4.5-8.5-4-20.4-14.2-17.9
					c10.5-22.6,18.4-44.9,24-64.8c-4.1,10.3-13.8,34-21,50.1c-27.7,0.9-28.8-34.3-35.8-54c-11.5-36.5-24.2-63.8-39.5-89.6
					c-0.3,0.4-0.6,0.7-0.8,1.1c14.1,26.1,26,53.4,37.3,89.4c6.9,20.4,9.3,55.6,37.5,55.2c-2.7,5.8-5.4,11.1-8.1,16.7
					c0.1,0.1,0.1,0.1,0.2,0.2c0.4-0.2,0.7-0.5,1.1-0.7c-2.2,4.9-5.2,11.5-8.2,18L232.9,1354.1z"/>
				<path class="st11" d="M313.8,1199.1c-0.6-1.2-1.2-2.4-1.8-3.6c-29.2-17.9-65.2-35-93.3-43.8c4.3,1.9,10.9,4.9,17.7,8
					C258,1169.4,288.6,1185.1,313.8,1199.1z"/>
			</g>
		</g>
		<g>
			<path class="st15" d="M369.6,1422.4c18.3-43.3,71-85.4,85.7-105.4c14.7-20,58.9-100.5,58.9-100.5s6.3-29.7,1.9-47.6l9.1-40.1
				c0,0,33.2-33.5,37.7-63.7c0,0,18,8.6,8.5,30.1s-18.8,48.5-18.8,48.5l37.6,4.7c0,0,12.8-33.5,19.6-44.6c6.7-11.1,26-20.7,26-20.7
				l-20.7,55.4c0,0,25.5-39.3,66.4-26.3c0,0-30.8,24.9-41,35.1c-10.2,10.2-25.7,26.3-25.7,26.3s37.3-21.3,53.7-20.5
				s36.6,8.1,36.6,8.1s-49.9,6.7-71.1,23.2c0,0,47.4-11.1,59.6,5.2c0,0-67,15-78,21.3c-11,6.3-35.7,29.1-35.7,29.1l-19.3,9.5
				c0,0-59,128.2-61.8,138.5c-2.8,10.3-37.6,97.1-37.6,97.1s-75.9,28.7-82.1,17.7C372.9,1491.9,369.6,1422.4,369.6,1422.4z"/>
			<path class="st16" d="M589.7,1148.4l-37.2-4.7c0,0,4.4-12.8,10.2-27.8l-39.4,20.8l-5,22l71.3-8.5L589.7,1148.4z"/>
			<g>
				<path class="st2" d="M683.2,1121.9l29.4,5.8l-28.3,10.1l-72.5,5.4l-110.6,8.2c-2.2,0.2-8.4-5.2-8.5-7.3l0,0l0,0
					c-0.2-2.2,5.2-8.4,7.3-8.5l110.6-8.2L683.2,1121.9z"/>
				<polygon class="st1" points="500,1135.4 501.2,1151.3 508.2,1159.9 581.9,1154.5 518,1153.5 516.4,1132 				"/>
			</g>
			<path class="st15" d="M589.6,1150.2c0.9,4,1.6,8.1,2.6,12.1c0.6,2.4,1.3,5,2.3,7.3c3.6-2.9,6.9-6.1,9.9-9.7
				c7.4-9.1,30.6-76.9,30.6-76.9s-19.3,9.5-26,20.7c-6.7,11.1-19.6,44.6-19.6,44.6l-0.2,0C589.3,1148.9,589.5,1149.5,589.6,1150.2z"
				/>
			<g>
				<path class="st2" d="M602.5,1171.5c2.4-1.3,4.5-2.4,6.2-3.3c1.6-6.1,4-17.5,4.9-22.4c-1.8,4.5-5.1,14.5-7.1,20.6
					c-14.1,5.7-34.4,17.9-44.1,25.1C571.6,1187.1,590.3,1177.9,602.5,1171.5z"/>
				<path class="st2" d="M613.2,1188.4c0.1-2.1-0.1-6.5-0.3-8.1c-0.6,1.4-1.4,5.7-2,7.7c-7.1-0.3-17.5,4.2-21.8,7.7
					c5.9-1.5,16.9-4.2,24-5.6C613.2,1189.5,613.2,1188.9,613.2,1188.4z"/>
			</g>
		</g>
	</g>
	<g>
		<g>
			<g>
				<path class="st18" d="M1376.1,1111.9l-6.3-41.5l-35.2-34.8l-19.1-8.2c0,0-17.2-21.7-43.6-14.5c0,0,35,18.3,43.3,42.1l-40.9-4.9
					c0,0-22.1-22.4-30.5-26.6c-8.4-4.1-23.3-7.4-23.3-7.4s19.2,7.4,26.9,30.3s40.9,46.1,40.9,46.1l59,34.2
					c0,0,14.4,142.8,15.6,151.2c1.2,8.4,21.6,51.5,21.6,51.5l39.1-21.1c0,0-1.5-60.4-2.2-63.5
					C1420.7,1241.7,1376.1,1111.9,1376.1,1111.9z"/>
				<path class="st19" d="M1347.4,1126.6c0,0,0.7,7,1.8,18.1c14.6,7.7,29.9,14.4,45.3,20.8c-9.7-28.4-18.4-53.5-18.4-53.5l-6.3-41.5
					l-35.2-34.8l-19.1-8.2c0,0-17.2-21.7-43.6-14.5c0,0,35,18.3,43.3,42.1l-40.9-4.9c0,0-22.1-22.4-30.5-26.6
					c-8.4-4.1-23.3-7.4-23.3-7.4s19.2,7.4,26.9,30.3c7.7,22.9,40.9,46.1,40.9,46.1L1347.4,1126.6z"/>
				<g>
					<path class="st2" d="M1272.4,1059.4c-4.7-9-17.4-21.1-26.9-27.2c6.5,7.7,12.2,18.7,10.5,27.6c1.5-4.3,1.7-10.4,0-15.5
						c8.7,8.1,14.8,15.2,20.6,22.9C1275.6,1065.2,1274.2,1062.3,1272.4,1059.4z"/>
					<path class="st2" d="M1360.2,1107.1c-9.4-26.1-25.3-25.1-48.8-27.6c-3.7-9.1-16.2-22.1-25.6-27c4.9,8.8,3,16.7,7,28.7
						c-6-16.9-21.6-29.1-21.6-29.1c5.5,11.6,7.3,20.7,7.9,30.9c0.9-6.2,0.6-13.7-1.2-21.1c11.2,14.9,16.2,20.8,19,29.9
						c-0.2-3.2-2.6-26.8-6.4-33c6.1,5.5,22.5,24.6,23.6,27.1c-0.3-0.7-1.3-3.6-2-5c24.9,5.3,35.4,3.5,49.1,28.7
						C1361.3,1109.7,1360.9,1108.8,1360.2,1107.1z"/>
					<path class="st2" d="M1322.1,1059.4c10.4,3.4,25.8,11.6,34.3,18.1c-8.9-11.9-25.9-20.3-40.7-20.2
						C1317.2,1057.8,1319.7,1058.5,1322.1,1059.4z"/>
				</g>
			</g>
			<g>
				<g>
					<path class="st8" d="M1486.8,1083.5l-10.8,28.5l-5,32.5c0,0-44.1,49.2-42.9,52.8c1.2,3.6,1.2,30,1.2,30l-15.7-5.9
						c0,0-17.8,59.9-21.4,62.3c-3.6,2.4-33.6,28.8-33.6,28.8l28.8,32.4l3.6,25.2l21,0.6l15,8.1c0,0,103.7-87.3,106.7-92.2
						s20.3-188.8,9.6-189.7S1486.8,1083.5,1486.8,1083.5z"/>
					<path class="st20" d="M1429.3,1227.4l-15.7-5.9c0,0-17.8,59.9-21.4,62.3c-3.6,2.4-33.6,28.8-33.6,28.8l28.8,32.4l3.6,25.2
						l21,0.6l15,8.1c0,0,23.9-73,24.9-77.1C1452.9,1297.5,1429.3,1227.4,1429.3,1227.4z"/>
				</g>
				<path class="st2" d="M1533.7,1286.5c3-4.9,20.3-188.8,9.6-189.7c-10.2-0.8-51.9-12.1-56.1-13.2c-1.7,29.4-5.3,61-5.3,61
					l-31.8,41.7l-8.5,30.6c0,0-6.3,66.1-10.3,72.3c-3,4.7,7.9,51.6,13.4,74.6C1474.4,1338.6,1531.5,1290.1,1533.7,1286.5z"/>
			</g>
		</g>
		<g>
			<path class="st8" d="M1504.5,918.8c-9.6,58.8,24.7,117.6,24.7,117.6l-1.3-28.7l14,19.9l7.8-26.9l10.2,14.4
				c0,0,65.7-32.5,73.9-27.1c8.3,5.5,30.1,23.4,30.1,23.4l14.9-11.9l-15.3-32.7l42.5,21.4l29-11.6c0,0-35.4-64.1-39.5-66.6
				c-4.1-2.5-35.7-31.3-52.2-31.3s-87.9-2.5-87.9-2.5L1504.5,918.8z"/>
			<g>
				<path class="st19" d="M1552.2,968.2c-14.6,14.9-59.9,21.5-59.9,21.5l-6.4-34.2l-10.4-3.7l4.5-15.9l-12.7-12.6l0.3-17.8
					l-25.3-6.9l31.1-57.5l-9.6-29.5c0,0,0-22.4,19.3-78.5l56.7-17l105.1,24.3c0,0,21,120.6,19.9,127.3c-1.1,6.6-25.5,88.5-25.5,88.5
					l24,69.3L1630,1087l-47.6,95.2c0,0-68.6,55.3-67.5,48.7s23.4-153.6,23.4-153.6s28.1-6.8,34.3-41.6
					C1576.4,1015.1,1552.2,968.2,1552.2,968.2z"/>
				<g>
					<path class="st2" d="M1467.3,923.3l7.4,0.7l3.8-2.5l13,4.3l14.1-2l-2.1-3.9l6.4,3.3c0,0-3.3,9.8-7.4,15.7
						c-7.4,10.7-16.8,16.7-16.8,16.7l-10.4-3.7l4.5-15.9L1467.3,923.3z"/>
					<path class="st1" d="M1478.3,929.5l3.3-0.4l12.6,0.5l11.9-4.1c0,0-10.8,11.9-23.8,17.2L1478.3,929.5z"/>
				</g>
				<polygon class="st16" points="1442.2,898.6 1474.2,899.3 1467.6,905.5 				"/>
				<g>
					<path class="st2" d="M1484.8,828.2c-5.5,0.1-8.9,5-19.2,0.6c2.9,1.1,11.2,8.6,13.8,9.5c0.4,4.6,2.5,15.5,3.3,18
						c0.5-1.9,1.8-12.1,2-16.2c2.5,1.1,13.5,4.7,14,4.4C1498.6,844.6,1484.8,830,1484.8,828.2z"/>
					<path class="st2" d="M1463.8,811.6l4.9-8c0,0,24.9,3.2,35.9,12.1c0,0-29.4-7.3-31.1-7.3S1463.8,811.6,1463.8,811.6z"/>
				</g>
				<path class="st2" d="M1735.5,963.3c-16.3-27.9-30.3-60.9-34.5-92.3c6.1-20.2,7-41.8,3.1-63.6c-10.1-43.1-41-126.3-95.4-122.6
					c-22.1-7.3-46.8-5.2-67,4.1c-16.1-14.2-57.6-11.3-57.6-11.3s-39.6,48.6-48.5,81.6c0,0,0.3-0.4,0.9-1.1
					c-5,19.7-1.6,43.7,8.1,60.1c24.1-14.7,26.8,19.9,59.7-9.1c8.6,8.9,38.5,4.8,37.3,5.1c0.9-1.3,22.6,74.1,10.8,109.5
					c1.3-1.8,5.8-9.6,7.3-13.1c0,0,0,0,0,0c-0.3,1.9,16.6-24.2,15.4-18.8c0,0,0.1-0.1,0.2,0c0.1,12.9-1.5,27.4,11,32.4
					c-13.2-14-8.7-78.9,27.5-81.8c15.4,35.5-12.5,52.6-11.3,50.9c-19.7,44.3-18.3,100.9,4.1,143.6c-7.2-26.8-4.5-41-1.4-21.1
					c2.9-13,13-41.7,13.4-39.8c4.1,34.1,22.1,15.5,39.5,3.3c0,0,0-0.1,0-0.1c14.9,9.5,37,11.3,52,4.2c2.1,1-8.4-12.3-15.4-21.3
					c6.9,1.4,18.7,3.6,26.9,5c-2.3-2.8-11.8-8.4-11.1-12.2C1718.1,959.2,1727.4,960.9,1735.5,963.3z"/>
				<path class="st2" d="M1582,901.6c4.9-4.6,17.3-17.8,15.9-25.4c-3.3-2.3-6.7,1.8-9.2,3.8l-4.9-4.3c7.7-10.1,15.2-18.7,25.4-25.4
					c0.1,0,0.5-0.5,0.6-0.2c4,6.6,6.3,15.4,6.3,21.8c-1.6-4.9-3.4-10.7-7.5-15.9c-4.1,4.3-7.9,8.7-11.6,13.5
					c19.8,6.2-7.1,29.2-15.7,32.9C1581.2,902.4,1581.5,902.1,1582,901.6z"/>
				<path class="st18" d="M1492.3,989.7c0,0,45.3-6.6,59.9-21.5c0,0,24.2,46.9,20.5,67.5c18.6-11.8,4.6-83.3,4.6-86.2
					C1577.3,946.6,1508.2,986.6,1492.3,989.7z"/>
			</g>
		</g>
		<g>
			<path class="st8" d="M1654.8,979.9c-40.5,26-75.1,69.4-75.1,69.4s-15.4,65-19,66.2c-3.6,1.2-30.2,47-30.2,47l15.8-55l28-74.2
				l-28.7,9.6l-14.8,24.8l-43.9,15.9c0,0,5.7,49,1,61c-4.8,11.9-46.7,76.6-46.8,83.4s26.4,96.5,26.5,104.3
				c0.1,7.8-21.5,78.5-21.5,78.5l13.2,25.2l-32.4,61.1l263.7-6c0,0,47.9-30,45.5-33.6c-2.4-3.6-4.8-112.7-4.8-118.7
				s72.1-191,72.1-191s-25.7-85.5-49.5-95.3c-23.8-9.7-81.8-36-81.8-36L1654.8,979.9z"/>
			<g>
				<g>
					<path class="st2" d="M1447.9,1414.2l2.2,4.1c32.3,17.6,68.7,29,104.2,32.2c0.4,0.1-7.1-1.4-9.3-1.8
						C1511.9,1442.1,1478.5,1430.1,1447.9,1414.2z"/>
					<path class="st2" d="M1464.2,1456.9c19-1.8,39-3.2,58.6-5c-17.1-3.9-36.3-8.2-51.4-12.6c-4.1-1.1-8.2-2.4-12.3-3.8l0.2,0.4
						l-0.9,1.7c14.6,5.3,29.9,9.4,44.7,12.9c-15.6,2.8-31.9-0.2-45.9,6.8c-10.2,14.2,24.4,15.2,32,14.1c-3.9,4.8-6.7,8.3-8.1,10
						c5.3,1.8,6.9,2.3,6.9,2.3s-1.5-0.6-6.5-2.4c2.6-2.9,6.5-7.4,9.3-10.7C1483.9,1472.6,1440.8,1465.3,1464.2,1456.9z"/>
					<path class="st2" d="M1697.6,1294.7c3.9-4.4,63-45.7,67.9-48.9c18.6-48.6,37.9-98,37.9-98s-72.8-96.8-85.1-100.7
						c-12.3-3.9-46.8,29.6-46.8,29.6l29.2-35.3l-41.8,40.3l-15,14.4l-6.2,26.8l-5.2,19.6l-2.1-42.3c0,0-8,42.4-8.5,48.8l-33.9,32.7
						l-0.4,36.6l-46.1,18.2l-38.9,56.5c-25.2-69.4-21.5-54.8,17.1-119.4c0,1.3,0,2,0,2c2-5.5,8.1-15.9,14.1-25.9l1.2-4
						c-5.6,8.5-11.5,17.5-14.6,22.3c2.1-27,7.1-68.5,12-103.5l-1.8,3.1l-1.3,0.5c-5.8,34.1-9.6,72.3-9.5,101
						c-11.9,22.9-43.6,52.1-34.7,82.3c4.1,15.1,13,28,17.1,42.2l-0.5,0.5c-20.6-20-41.7-43.4-60.8-66.9c-0.1,0.3-0.1,0.5-0.1,0.7
						c0,0.7,0.2,2.1,0.7,4.3c17.6,22.9,38.4,45,59.4,62.7l-33.7,36.1c0.1,0.5,0.1,1,0.1,1.3c0,1.6-0.9,6-2.4,11.9l41.2,33.2
						l-26.9,21.3l99.4,41.4l53.7-82.6c0,0,5.7-16.7,16.2-24.7c7.8,1.4,15.8,2.4,23.4,2.8c-1.7,10-1.3,21.9,5.9,29.8
						c-15,8.5-33.1,17.9-49.5,26.2c16.7-3.7,37.3-8.4,54.6-12.4c-6.4,6.5-12.1,12.2-15.6,15.8c5.2,2.5,9.9,4.7,14.5,6.9
						c-11.7,10.8-42.7,39.8-46.3,43.2c4.2-3.7,35.7-31.4,48.1-42.4c0.9,0.4,3.3,1.6,3.4,1.6c-6.8,8-25.4,17-25.2,27.3
						c2.1,8,12,8,18,5.2c-0.7,2.6-1.4,5.2-2.1,7.7c-40,11.6-81.6,18.6-121.8,21.3c39.9-0.5,81.1-6.3,120.8-17.8
						c-4.1,14.9-8.2,30.1-11.9,43.6l0.7,0c4-13.6,8.5-29,12.9-44.1c18.7-5.4,37.2-12.2,55.1-20c0-0.7-0.1-1.4-0.1-2.1
						c-17.5,7-35.3,13.2-54,18.6c0.9-3.2,1.9-6.5,2.9-9.9c-5.9,3.2-20.7,4.8-18.1-5.9c7.7-9.2,18.3-16,27.3-24.5
						c-1.4-0.7-3.5-1.7-6-2.9c12.3-10.9,24.7-22,37.6-33.6c-8.4,1.8-19,4.2-30.9,6.8c1.5-1.5,2.9-2.9,4.4-4.4
						c-5,0.1-10.2-0.1-14.2-3.9c17.7-10.3,34.1-20.6,49.5-30.8c0.2-0.7,0.5-1.5,0.8-2.4c-16.3,10.3-33.6,20.7-52.3,31.3
						c-7-7.3-7.2-18.6-5.6-28.1c9.5,0.6,19.5,0.5,27.5,0c-2.4-0.2-20.3-1.8-27.1-2.6c1.5-7.9,3.2-15.9,4.9-23.8
						c19.4-6.5,39.4-17.5,54.9-29.9c-14.6,9.8-32.5,19-50,25.1C1692,1299.5,1696.7,1295.8,1697.6,1294.7z M1714.4,1372
						c-11.1,10.3-21.3,19.7-30.2,28c-3.5-1.7-7.6-3.7-11.8-5.7c3.7-3.7,9.6-9.6,16.2-16.2C1697.6,1375.9,1706,1374.1,1714.4,1372z
						 M1690,1372.4c-0.9,1-1.9,1.9-2.8,2.8c-9.5,2.1-19.8,4.4-30.3,6.8c-1.8,0.4-3.7,0.8-5.5,1.2c10-5.3,19.6-10.7,28.7-15.9
						C1682.9,1370,1686.4,1371.8,1690,1372.4z M1672.7,1332.7c-6-0.6-13.2-1.6-20.5-2.6c8.1-6.1,17.1-13,25.1-19.1
						C1675.7,1318.2,1674.1,1325.4,1672.7,1332.7z"/>
					<path class="st2" d="M1673.8,1017.3c-1.1-0.5-1.7-0.8-1.7-0.8l-0.5-1.1c-25.9,27.1-51.4,56.4-69.9,80.8
						c13.5-15.1,39.7-44.1,60.8-66.7C1666.1,1025.5,1669.9,1021.4,1673.8,1017.3z"/>
					<path class="st2" d="M1511.2,1102.1c-5.6,10.6-14.1,25.9-23.2,41.8c-0.1,0.2-0.2,0.4-0.2,0.6c-2.7,6.8-17.4,30.5-29.6,51
						c1.8-2.3,3.7-4.9,5.6-7.6C1480.4,1166.1,1501.7,1127.2,1511.2,1102.1z"/>
				</g>
			</g>
			<g>
				<g>
					<path class="st9" d="M1672.1,1016.5l-17.3-36.6c-40.5,26-75.1,69.4-75.1,69.4s-15.4,65-19,66.2c-3.6,1.2-30.2,47-30.2,47
						s52.6-65.3,61.9-77.6C1601.6,1072.4,1672.1,1016.5,1672.1,1016.5z"/>
					<g>
						<path class="st20" d="M1531.5,1103.3c-0.5,3-1,59-1,59l15.8-55l28-74.2l-28.7,9.6l-14.8,24.8
							C1530.8,1067.6,1531.9,1100.3,1531.5,1103.3z"/>
					</g>
				</g>
			</g>
		</g>
		<g>
			<g>
				<path class="st19" d="M1362.4,1161.1c0,0-44.3-26.2-47.9-26.2c-3.6,0-50.8-16.1-50.8-16.1s-63.5,6-85.1-2.4
					c0,0,10.3,22.5,30.3,21.4c20-1,51.6-4.5,51.6-4.5l-15.3,43.6c0,0,27.9,11.4,36.3,23.4l25.1-4.2l17.8,7.1l19.6-11.9
					c0,0,76.3,89.2,91.3,117.2c15,28,93.5,18,93.5,18l-9.2-63.2L1362.4,1161.1z"/>
				<g>
					<path class="st2" d="M1304.3,1147.4c-11.8,12.8-21.3,30.8-26.2,48.8c0.6,0.6,1.3,1.2,1.8,1.9c6-16.7,14.1-34.1,22.9-48.2
						C1303.8,1148.2,1304.3,1147.4,1304.3,1147.4z"/>
					<path class="st2" d="M1307.6,1174.2c-2.7,7.1-5.4,10.9-10.9,15.9l-3.6,5.9c1.1-0.7,7.7-5,8.9-5.8c0,0,0,0.1,0,0.1
						c2-1.5,4.3-2.9,6.2-4.4c-0.2,3-1,6.7-2,10.4l0.5-0.1l1.4,0.5c1-2.6,1.8-5.3,2.5-8c2.6,4.1,5.7,6.8,9.2,8.7c0,0-0.3-0.4-0.8-1
						c-2.8-3.6-5.2-7.4-7.4-12.6c0.2-1.1,1.3-3.3,0.6-4.1c0,0,9.5,4.4,9.5,4.4C1320.2,1182.2,1309.3,1176.1,1307.6,1174.2z"/>
					<path class="st2" d="M1260.5,1184.1c8.3-14,17.3-31.9,21.8-44.7c0.7-1.9,1.2-3.5,1.4-4.1c3.1-0.1,4.8-0.1,6.5-0.2
						c-1.8-0.2-4.6-0.3-7-0.4c-7.2,13.2-16.9,32.5-24.6,48.5C1259.2,1183.5,1259.9,1183.8,1260.5,1184.1z"/>
				</g>
			</g>
			<g>
				<g>
					<path class="st8" d="M1718.3,1047.1c-15.6,9.6-71.7,39.9-69.5,57.5c2.2,17.6-6.2,31.9-17,45.1c-10.8,13.3-40.8,36-40.6,41
						s-0.8,32.6-0.8,32.6l-42.4,21.5l-13.1,22l-17.8-16l-13.2-16.8l-25.2-3.6c0,0-23.7,70.9-55,88.8c0,0,11.9,28.6,18.5,32.6
						c4.1,2.5,32.8,28.9,32.8,28.9s17.6-8.9,20.3-8.5c7.3,1.3,78.2,42.4,78.2,42.4s55.1-76.8,61.6-84.4
						c6.5-7.6,119.2-83.1,122.8-93.9s45.5-83.9,45.5-88.7C1803.4,1143,1779.4,1061.2,1718.3,1047.1z"/>
					<g>
						<path class="st2" d="M1536.1,1264.7l-1.3,2.2l-0.6-0.5c1.2,31.4-1.1,64.2-6.7,94.1c8.6-28.8,11.9-62.5,8.9-92.7
							C1536.3,1266.8,1536.2,1265.8,1536.1,1264.7z"/>
						<path class="st2" d="M1573.7,1347.6c-14.7-27.3-26.3-57.6-34.3-88.5l-2.1,3.5c7.9,32.3,21.4,63.6,39.2,90.4
							C1576.6,1353,1575.6,1351,1573.7,1347.6z"/>
						<path class="st2" d="M1576.3,1410.8c6.1-26,20.7-73.8,29.6-96.8c-1.7,3.3-4.2,8.5-6.6,13.9c-10.4,21.8-20.8,59.1-23.5,83.6
							C1575.9,1411.3,1576.1,1411.1,1576.3,1410.8z"/>
						<path class="st2" d="M1682.9,1273.9c-1.3,0.4-3.1,0.8-5.3,1.2c-23.3,4.8-49.8-16.1-48.5-41.5l-2.4-0.2
							c-3,16.7-6.9,38.4-10.2,57.3c-8.8-31.7-17.7-68.2-24.9-101.3c-0.3,0.6-0.5,1.1-0.5,1.5c0,0.6,0,1.7,0,2.9
							c6.9,36.7,16.2,76.5,26.1,111.2c3.7-22,7.2-42.4,10.4-62.7C1631.9,1266.9,1661.1,1282.4,1682.9,1273.9z"/>
						<path class="st2" d="M1773.2,1127.3c-0.1-4.8-0.2-7.4-0.2-7.4c-0.7,40.4-7.8,82.7-20.3,122.7c2.1-2,3.6-3.6,4.5-4.8
							C1768.6,1201.9,1774.2,1163.9,1773.2,1127.3z"/>
						<path class="st2" d="M1728.1,1070.2c0.3-0.2-6.8,3.1-9,4.1c-25.6,12-50.1,28.6-71.7,48.2c-0.6,2-1.2,4-2.1,5.9
							C1670.6,1105.4,1699,1085.4,1728.1,1070.2z"/>
					</g>
				</g>
				<g>
					<path class="st9" d="M1517,1250.9l-13.2-16.8l-25.2-3.6c0,0-23.7,70.9-55,88.8c0,0,11.9,28.6,18.5,32.6
						c4.1,2.5,32.8,28.9,32.8,28.9s17.6-8.9,20.3-8.5c37-41.5,39.6-105.4,39.6-105.4L1517,1250.9z"/>
					<path class="st2" d="M1518.2,1276.6c-9,10.3-22.5,25.6-33.1,37.7c12.5-20.5,22-44.4,27.9-68.4l-1.2-1.5
						c-8.4,31.1-22.7,61.5-42.4,88l2.4,2c14.3-16.5,29.2-33.5,42.8-49.7c-3,29.2-16.8,61.5-32.9,83
						C1500.9,1344.5,1515.6,1308.7,1518.2,1276.6z"/>
				</g>
			</g>
		</g>
	</g>
	<g>
		<path class="st21" d="M1852.9,1610.1l-1558,11.6c5,28.5,11.1,141.8,14.3,204.2c188.9,89.7,415.5,0.5,616.3-10
			c268-12.2,552.9,149.6,805.4-0.5c52.8-24,93.3-65.6,114.6-114.9L1852.9,1610.1z"/>
		<g>
			<path class="st22" d="M1821.1,1742.8c40.8-55.4,54.1-128,25.2-197.8c-19.1-47.6-35.5-88.1-49.5-123.2
				c-202.7-14.4-988-47.4-988-47.4l-626,216.7l10.9,61.3l1562.7,85.4C1756.6,1737.7,1787,1741.7,1821.1,1742.8z"/>
			<polygon class="st23" points="182.9,1591 1846,1699.1 1820.9,1743.1 193.9,1652.3 			"/>
		</g>
	</g>
	<g>
		<path class="st23" d="M344.6,1556.9l-15.7,9.5l305,38c0,0,641.4,35.5,645,36.2c3.7,0.7,125.4,20.3,125.4,20.3l380.3-27.1
			l-334.6-215.4l-625-39L344.6,1556.9z"/>
		<g>
			<path class="st24" d="M836.8,1385.5l-455.3,180c0,0,805.8,58.4,808.8,58.3c3-0.2,273.2-181.7,273.2-181.7L836.8,1385.5z"/>
			<g>
				<polygon class="st13" points="1106.1,1587.9 987.3,1582.3 1068.7,1545.1 1187.5,1550.7 				"/>
				<polygon class="st13" points="1300.4,1488.5 1181.6,1482.9 1262.9,1445.7 1381.7,1451.3 				"/>
				<polygon class="st13" points="1273.9,1544.3 1155.1,1538.6 1236.5,1501.4 1355.2,1507.1 				"/>
				<polygon class="st9" points="746.8,1524.6 628,1519 709.3,1481.8 828.1,1487.5 				"/>
				<polygon class="st13" points="896.9,1560.2 778.1,1554.6 846.2,1516.7 965,1522.4 				"/>
				<polygon class="st9" points="629.1,1544.4 510.3,1538.7 578.4,1500.9 697.2,1506.6 				"/>
				<polygon class="st9" points="894.8,1446.7 776.1,1441.1 844.2,1403.3 963,1408.9 				"/>
				<polygon class="st9" points="1081.4,1541 962.6,1535.4 1030.7,1497.6 1149.5,1503.2 				"/>
			</g>
		</g>
		<g>
			<path class="st2" d="M561,1544l-149.4-16.4c-2.1-0.2-5.3,0.2-7,1l-60,28.3c-1.7,0.8-1.4,4.5,0.7,4.7l149.4,16.4
				c2.1,0.2,5.3-0.2,7-1l60-28.3C563.5,1548,563.2,1544.3,561,1544z"/>
			<path class="st9" d="M561.6,1544.2l-59.9,28.2c-1.7,0.8-4.8,1.3-7,1L345.3,1557c-0.2,0-0.4-0.1-0.6-0.2l-0.1,0.1
				c-1.7,0.8-1.4,4.5,0.7,4.7l149.4,16.4c2.1,0.2,5.3-0.2,7-1l60-28.3C563.3,1548,563.2,1545,561.6,1544.2z"/>
			<path class="st8" d="M483.9,1569.3l-119.4-13.1c-1.7-0.2-2-0.9-0.6-1.5l48-22.6c1.4-0.6,3.9-1,5.6-0.8l119.4,13.1
				c1.7,0.2,2,0.9,0.6,1.5l-48,22.6C488.1,1569.1,485.6,1569.5,483.9,1569.3z"/>
			<g>
				<linearGradient id="SVGID_3_" gradientUnits="userSpaceOnUse" x1="475.4159" y1="1602.9121" x2="424.5287" y2="1494.5714">
					<stop  offset="0" style="stop-color:#FFFFFF"/>
					<stop  offset="1" style="stop-color:#000000"/>
				</linearGradient>
				<path class="st25" d="M536.8,1544.3l-2.1-0.2c-53.9,3-107.8,5.9-161.7,6.2l-9.1,4.3c-1.4,0.6-1.1,1.3,0.6,1.5l18.5,2
					c10.8,0,21.6-0.1,32.4-0.2c34.2-0.3,68.4-1.1,102.5-3l19.5-9.2C538.8,1545.2,538.5,1544.5,536.8,1544.3z"/>
				<linearGradient id="SVGID_4_" gradientUnits="userSpaceOnUse" x1="483.9705" y1="1598.8942" x2="433.0831" y2="1490.5533">
					<stop  offset="0" style="stop-color:#FFFFFF"/>
					<stop  offset="1" style="stop-color:#000000"/>
				</linearGradient>
				<path class="st26" d="M483.9,1569.3c1.7,0.2,4.2-0.2,5.6-0.8l15.9-7.5c-25.8,1.2-51.6,1.8-77.4,2.2L483.9,1569.3z"/>
				<linearGradient id="SVGID_5_" gradientUnits="userSpaceOnUse" x1="458.9259" y1="1610.6571" x2="408.0349" y2="1502.3082">
					<stop  offset="0" style="stop-color:#FFFFFF"/>
					<stop  offset="1" style="stop-color:#000000"/>
				</linearGradient>
				<path class="st27" d="M417.5,1531.2c-1.7-0.2-4.2,0.2-5.6,0.8l-5.6,2.7c11.2-0.3,22.3-0.6,33.5-1L417.5,1531.2z"/>
			</g>
		</g>
		<g>
			<path class="st2" d="M1149.7,1419.3l149.4-16.4c2.1-0.2,5.3,0.2,7,1l60,28.3c1.7,0.8,1.4,4.5-0.7,4.7l-149.4,16.4
				c-2.1,0.2-5.3-0.2-7-1l-60-28.3C1147.2,1423.2,1147.5,1419.5,1149.7,1419.3z"/>
			<path class="st9" d="M1149.1,1419.4l59.9,28.2c1.7,0.8,4.8,1.3,7,1l149.4-16.4c0.2,0,0.4-0.1,0.6-0.2l0.1,0.1
				c1.7,0.8,1.4,4.5-0.7,4.7l-149.4,16.4c-2.1,0.2-5.3-0.2-7-1l-60-28.3C1147.4,1423.3,1147.5,1420.2,1149.1,1419.4z"/>
			<path class="st8" d="M1226.8,1444.5l119.4-13.1c1.7-0.2,2-0.9,0.6-1.5l-48-22.6c-1.4-0.6-3.9-1-5.6-0.8l-119.4,13.1
				c-1.7,0.2-2,0.9-0.6,1.5l48,22.6C1222.6,1444.3,1225.1,1444.7,1226.8,1444.5z"/>
			<g>
				
					<linearGradient id="SVGID_6_" gradientUnits="userSpaceOnUse" x1="1090.8645" y1="1478.1333" x2="1039.9773" y2="1369.7927" gradientTransform="matrix(-1 0 0 1 2326.135 0)">
					<stop  offset="0" style="stop-color:#FFFFFF"/>
					<stop  offset="1" style="stop-color:#000000"/>
				</linearGradient>
				<path class="st28" d="M1173.9,1419.6l2.1-0.2c53.9,3,107.8,5.9,161.7,6.2l9.1,4.3c1.4,0.6,1.1,1.3-0.6,1.5l-18.5,2
					c-10.8,0-21.6-0.1-32.4-0.2c-34.2-0.3-68.4-1.1-102.5-3l-19.5-9.2C1171.9,1420.4,1172.2,1419.8,1173.9,1419.6z"/>
				
					<linearGradient id="SVGID_7_" gradientUnits="userSpaceOnUse" x1="1099.4191" y1="1474.1155" x2="1048.5317" y2="1365.7747" gradientTransform="matrix(-1 0 0 1 2326.135 0)">
					<stop  offset="0" style="stop-color:#FFFFFF"/>
					<stop  offset="1" style="stop-color:#000000"/>
				</linearGradient>
				<path class="st29" d="M1226.8,1444.5c-1.7,0.2-4.2-0.2-5.6-0.8l-15.9-7.5c25.8,1.2,51.6,1.8,77.4,2.2L1226.8,1444.5z"/>
				
					<linearGradient id="SVGID_8_" gradientUnits="userSpaceOnUse" x1="1074.3745" y1="1485.8784" x2="1023.4835" y2="1377.5295" gradientTransform="matrix(-1 0 0 1 2326.135 0)">
					<stop  offset="0" style="stop-color:#FFFFFF"/>
					<stop  offset="1" style="stop-color:#000000"/>
				</linearGradient>
				<path class="st30" d="M1293.2,1406.4c1.7-0.2,4.2,0.2,5.6,0.8l5.6,2.7c-11.2-0.3-22.3-0.6-33.5-1L1293.2,1406.4z"/>
			</g>
		</g>
		<g>
			<path class="st13" d="M651.9,1477.3c-4.6,0-28.9-27.8-49.8-8.1c-20.8,19.7,45.1,97.3,45.1,97.3l-1.1-26.7c0,0-32.4-26.6-37-49.8
				c-4.6-23.2,22-23.2,45.1,1.2L651.9,1477.3z"/>
			<g>
				<path class="st13" d="M644.8,1597.6c10.8,3.5,39,9.6,83.3-0.5c3.4-0.8,5.9-3.7,6.1-7.2c1.4-29.9,10.1-114,12.3-142.6
					c0.3-3.8-2.2-7.2-5.8-8.1c-10.3-2.7-31.9-7.5-53.7-7.5c-21.8,0-43.5,4.8-53.8,7.5c-3.6,0.9-6.1,4.3-5.8,8.1l12.1,143.4
					C639.7,1593.9,641.8,1596.6,644.8,1597.6z"/>
				<g>
					<path class="st1" d="M714.2,1474.7c-1.9,40.2-3.3,80.4-5.1,120.6c-1.7,0.2-3.3,0.4-4.9,0.6c1.7-43.4,2.8-86.9,5.3-130.2
						c1.7-0.2,3.4-0.5,5.1-0.8C714.5,1468.1,714.4,1471.4,714.2,1474.7z"/>
					<path class="st1" d="M656,1464c0,5,0,9.9,0.1,14.9c0.2,38.8,0.5,77.5,0.7,116.3c-3.6-0.6-6.6-1.3-9-2c0-2.3-0.1-4.5-0.2-6.8
						c-1.2-41.8-5.8-83.4-8.6-125.2C644.6,1462.2,650.3,1463.2,656,1464z"/>
				</g>
				<ellipse class="st8" cx="686.2" cy="1447" rx="54.7" ry="8.8"/>
				<path class="st1" d="M730.7,1452.2c-9.9,2.2-26.2,3.7-44.6,3.7c-18.4,0-34.7-1.5-44.6-3.7c9.9-2.2,26.2-3.7,44.6-3.7
					C704.6,1448.5,720.8,1449.9,730.7,1452.2z"/>
			</g>
		</g>
		<g>
			<g>
				<polygon class="st1" points="1480.8,1536.5 1391.6,1536.5 1374.5,1343.7 1497.9,1343.7 				"/>
				<polygon class="st9" points="1485,1501.7 1387.3,1501.7 1376.2,1376.5 1496.2,1376.5 				"/>
				<polygon class="st31" points="1491.6,1344.9 1380.8,1344.9 1392.3,1323.4 1480.1,1323.4 				"/>
				<polygon class="st32" points="1509.9,1358.2 1362.5,1358.2 1377.9,1336.7 1494.6,1336.7 				"/>
			</g>
		</g>
		<g>
			<path class="st13" d="M1392.3,1660.9l-261.8-47c-6.4-1.2-11.1-6.7-11.1-13.3v0c0-6.9,5.1-12.6,12-13.4l346.6-39.7l299.3,78.3
				L1392.3,1660.9z"/>
			<path class="st33" d="M1392.3,1641.1l-261.8-47c-2.6-0.5-4.9-1.7-6.8-3.4c-2.7,2.5-4.4,6-4.4,9.9c0,6.5,4.7,12.1,11.1,13.3
				l261.8,47l384.9-35l-56.2-14.7L1392.3,1641.1z"/>
			<polygon class="st23" points="1415.2,1632.9 1271,1610 1643.2,1567.3 1792.8,1598.5 			"/>
			<g>
				<path class="st33" d="M1392.3,1660.9l130.9-381.2c1.2-3.6,4.6-6.1,8.4-6.2l349.3-11.1c6.3-0.2,10.9,5.9,9,11.9L1777.2,1626
					L1392.3,1660.9z"/>
				<path class="st13" d="M1404.4,1660.9l130.9-381.2c1.2-3.6,4.6-6.1,8.4-6.2l349.3-11.1c6.3-0.2,10.9,5.9,9,11.9L1789.3,1626
					L1404.4,1660.9z"/>
				<linearGradient id="SVGID_9_" gradientUnits="userSpaceOnUse" x1="1691.9924" y1="1077.9426" x2="1637.2745" y2="1629.4969">
					<stop  offset="0" style="stop-color:#FFFFFF"/>
					<stop  offset="1" style="stop-color:#000000"/>
				</linearGradient>
				<path class="st34" d="M1643.9,1270.4l79.1-2.5c-49.6,38-97.6,77.9-144.6,119.3c-38.5,33.9-76.6,68.3-115.1,102.3l31.2-90.8
					C1543.2,1354.6,1593.1,1312,1643.9,1270.4z M1578.3,1560.5c93.2-84.7,188-167.6,282.7-250.5c13.4-11.8,27.1-23.4,40.8-35
					l0.2-0.6c1.9-6-2.7-12.1-9-11.9l-67.1,2.1c-19.2,13.8-38.3,27.7-57.2,41.9c-58.6,43.8-116,93.2-172.2,143.2
					c-56.7,50.3-113,101.4-171,150.2l-21,61.1l72.4-6.6C1510.4,1622.8,1544.2,1591.5,1578.3,1560.5z M1660.4,1573.5
					c62.1-65.1,125.4-129.1,188.2-193.5c9.5-9.8,19.2-19.4,28.8-29.1l13.6-42.3c-10.7,9.1-21.3,18.3-31.9,27.6
					c-47.9,42-95.9,83.9-143.6,126.1c-70.4,62.3-140.2,125.2-208.9,189.3l87.9-8C1616.4,1620.1,1638.3,1596.7,1660.4,1573.5z"/>
			</g>
		</g>
	</g>
	<g>
		<g>
			<path class="st10" d="M1058.1,1378.9c11.6-1.1,22.1-7.6,24.4-7.6c2.2,0,15.7,0,15.7,0s6,13,8.2,15.1c2.2,2.2,6.7,6.5,6.7,6.5
				s-9,5.8-11.2,5.8c-2.2,0-14-3.9-14-3.9L1058.1,1378.9z"/>
			<g>
				<path class="st2" d="M1035.4,1348.1c3-4.3,21.7-13.7,21.7-13.7l57.7,81.4v10.8l9,12.2h-12.7l-6.7-7.9l-8.6-2.2L1035.4,1348.1z"
					/>
				<path class="st13" d="M1075.4,1360.2l-18.3-25.8c0,0-18.7,9.4-21.7,13.7l17.9,24C1060.1,1368.3,1069.4,1363.4,1075.4,1360.2z"/>
				<polygon class="st13" points="1104.3,1430.9 1104.4,1430.9 1111.1,1438.8 1123.8,1438.8 1114.8,1426.6 1114.8,1423.7 				"/>
			</g>
			<g>
				<path class="st10" d="M1110,1416.1c0,0-17.5-28.4-35-34.7c-17.5-6.3-40.4-13.7-40.4-13.7l-9,9.7c0,0-8.1,5.6-19.2,5.8
					c-24.5-20.9-58-58.6-84.3-87.4c-36-39.5-72.6-69.4-72.6-69.4s-14.8-25.5-26.4-68.9l-72.4,37.6l30.8,62.2c0,0,30.1,54,70.7,80.5
					c56.8,37.1,99.8,70.9,120.6,87.8c0.1,1.2,28.9,26,28.9,26s17.5-1.1,21.9-1.1c4.4,0,35,2.1,35,2.1l8.7-6.3l12-6.3l2.2-7.4
					c5.5,2.1,14.2-4.2,14.2-4.2l-3.3-10.5C1100.1,1421.3,1110,1416.1,1110,1416.1z"/>
				<g>
					<path class="st2" d="M1092.5,1418.2c-4.6-0.2-18.8-13.9-18.8-13.9s-2.9-1.3-6.5-2.9c-4.6-2-10.2-4.3-11.5-4.3
						c-2.2,0-16.5-3.6-16.5-3.6l26.2,12.2L1092.5,1418.2z"/>
					<path class="st2" d="M1081.6,1432.9l-19.1-8.4l-13.5-6.5l-20.2-10.1c0,0,11.2,13,14.2,13.7c3,0.7,17.2,7.2,19.5,7.9
						C1064.7,1430.2,1081.6,1432.9,1081.6,1432.9z"/>
					<path class="st2" d="M1067.3,1446.5l-19.2-9.9l-21-6.5c0,0,10.5,9.4,15,10.8C1046.7,1442.4,1067.3,1446.5,1067.3,1446.5z"/>
				</g>
				<path class="st7" d="M839.4,1205.4c-4.9-11.6-10.9-27.8-16.3-47.8l-72.4,37.6l29.4,59.4C802.9,1238.3,823.6,1220.6,839.4,1205.4
					z"/>
				<g>
					<path class="st2" d="M1032.3,1376.9c-0.1-0.9-0.6-3.1-0.7-3.4c0.3,8.2-5.2,17.8-13.8,21.8c-0.7,4.1,0.6,9.5,2.7,12.6
						c-0.8-2.9-1.3-7.7-0.4-11.1C1028,1393.9,1033.2,1384.7,1032.3,1376.9z"/>
					<path class="st2" d="M984.3,1406.5c-0.2,1.3-0.3,4.5-0.3,5c2.4-11.8,11.9-24.4,23.2-28C997.1,1383.1,985.9,1395.1,984.3,1406.5
						z"/>
					<path class="st2" d="M1011.8,1416.5c-1.8,0.4-3.7,0.9-5.5,1.4c0.7,3.6,1.7,8.3,2.8,12.2c0,0,0,0,0,0c0,0,0,0,0,0
						c-1.7,0.4-3.8,0.9-5.5,1.4c0.3,3.6,1.2,10.1,1.8,13c0.3-2.2,0.4-8.3,0.5-11.3c2.2-0.1,4.3-0.7,6.5-1.1c-0.9-3.6-2.5-10-3.8-13
						c2.5-1.1,7.6-3.1,9.4-4C1017.5,1415.2,1013.5,1416.1,1011.8,1416.5z"/>
				</g>
			</g>
		</g>
		<g>
			<path class="st9" d="M736.8,905c20.5,12.7,58.4,44.5,60.4,80.9c2.1,36.5,18.3,82.8,26.3,95.5c8,12.8,30.3,39.6,30.3,39.6
				l-17.2,42.8l17.2,25.2c0,0-60,46.7-104.2,36.3l-4-20.8c0,0-53.5-16-45.4-21.8c8.1-5.8,12.8-39.2,4.2-50.5
				c-8.6-11.3-37-102.4-37.6-121.2c-0.5-15.8,16.9-54.9,19.3-68.2L736.8,905z"/>
			<g>
				<path class="st2" d="M836.6,1163.9l0.5-1.3c-8,7.4-14.9,14.3-14.2,14.5c0.2,0.6,6.9-5.1,14.6-11.9L836.6,1163.9z"/>
				<path class="st2" d="M684.8,1011.7c16.9,41.5,25.2,88.9,24.1,134.4c0.6,6.4,0.1,13.7-1.2,20.2c-0.2,2.5-0.5,4.9-0.7,7.4
					C717,1120.5,708.8,1060.6,684.8,1011.7z"/>
				<path class="st2" d="M710.5,936.4c-15.5,17.4-26.3,42.4-28,65.2C688,979.6,698.3,955.6,710.5,936.4z"/>
				<path class="st2" d="M813.4,1198.2c-19.2,5.7-42,8-62.4,6.5c20.4-4,41-10.9,57.8-19.8c-19.8,7.4-43.2,14.1-65.6,19
					c1.6,0.5,2.5,0.8,2.5,0.8l0.2,0.9c1-0.2,2.1-0.4,3.1-0.6C769.7,1210,794.6,1207.4,813.4,1198.2z"/>
				<path class="st2" d="M823.6,1143c-5.6,8.4-9,16.7-11.6,25.8c5.3-3,10.9-6.3,15.9-9.5c-4.3,8.8-5.9,12.2-5.9,12.2
					c2.1-3.7,5.3-9.5,7.9-14.2c-3.1,1.2-11.1,6.5-14.4,7.1c3.8-9.9,9.4-20.1,18.4-30.1l-2.1-1.9c-21.6,19.6-41.9,31-63.9,40
					C787.6,1166,805.2,1157.5,823.6,1143z"/>
			</g>
		</g>
	</g>
	<g>
		<path class="st15" d="M703.6,1258.5c-0.7-4.7,15-51.6,22.7-56c7.7-4.4,9.4-29.2,9.4-29.2l0.7-32.9c0,0,19.4,8,20.4,20.9
			c2,27.1-9.5,43.8-9.5,43.8s11.6,10.2,14,12.2s25.2,11.4,25.2,11.4s55.9,18.7,61,18.8c5.1,0-12.9,9.1-25.5,7s-28.4-5.3-28.4-5.3
			s-14.4-1-16.1,1.6s16.3,13.5,19.6,15.4c3.3,1.9,30.3,32.1,30.3,32.1s-8.2,6.8-18.1,1.9c-9.9-4.9-26.3-19.1-26.3-19.1l-14.7-2.6
			c0,0,10.8,17.5,11.8,24.5c1,7-4,21.3-6.5,24.8c-2.5,3.6-6.7,16.9-6.7,16.9s-8.7-10.6-9-19.3c-0.3-8.7,0.6-16.8,0.6-16.8l-8.1-13.1
			c0,0,2.2,14.8,2.1,21.1c-0.1,6.4-5.9,15.2-5.9,15.2l-8.6,10.8c0,0-5.4-8.7-4.4-16c1-7.3-0.6-11-0.6-11s-14.3,6.9-23.1,2.6
			c-8.8-4.3-30.2,2.9-36.1,4.6c-5.9,1.7-96,35.6-96,35.6l-14.8-36.1c0,0,11.2-40,26.3-47.8c15.2-7.8,46.1-6.8,52.2-6
			C669,1271.6,703.6,1258.5,703.6,1258.5z"/>
		<path class="st2" d="M703.6,1258.5c-14.9,19.9,6.3,59.3,6.3,59.3l-29.9,4c0,0-11.6-38.3,1.5-61.3L703.6,1258.5z"/>
		<g>
			<path class="st2" d="M746.9,1211.4c-1.6,21.8-16.3,43.6-36,53.1C727.8,1251.8,741.3,1231.8,746.9,1211.4z"/>
		</g>
		<g>
			<path class="st2" d="M771.5,1238.1c-18.2,18.7-33,43.7-40.5,68.7C734.4,1280.4,750.1,1253.9,771.5,1238.1z"/>
		</g>
	</g>
	<g>
		<path class="st13" d="M1117,1435.6c-10.8,12.4-25.7,20.6-42.1,22.6c-2.1,0.3-4.1,1.6-4,4c0,1,0.1,1.9,0.1,2.9
			c-6.9,0.3-13.7,0.7-20.6,1c-1.2-0.3-2.6-0.3-4.1,0.3c-3.9,1.5-3.7,8,1.1,7.8c0.3,0,0.7,0,1,0c-0.2,0.4-1.3,1.8-1.9,2.1
			c-1.4,0.7-3.4,0.6-4.9,0.6c-3.9,0.1-7.7,0.2-11.6,0.2c-8.3,0.2-16.5,0.4-24.8,0.6c-16.5,0.4-33.1,0.7-49.6,1.1
			c-3.1,0.1-4.3,4.2-1.6,5.8c7.2,4.2,14.5,8.4,21.7,12.6c-10.7,3.7-21.9,5.4-33.3,4.8c-2.3-0.1-2.2,3.2,0,3.5
			c13.8,1.6,27.5,0,40.4-5.1c2.2-0.9,2.8-3.7,0.7-5.1c-5.6-3.4-11.3-6.9-16.9-10.3c21.4-0.1,42.9-0.2,64.3-0.2
			c7.3,0,20,1.9,24.3-5.9c0.8-1.5,1.1-3.3,0.9-5.1c6.3-0.3,12.5-0.5,18.8-0.8c2.1-0.1,4.1-1.8,4-4c0-1.1-0.1-2.2-0.1-3.3
			c16.9-2.9,32.4-11.2,43.9-24.2C1126.4,1437.5,1120.5,1431.6,1117,1435.6z"/>
		<path class="st13" d="M909.9,1469.6c12.3-0.7,24.7-1.3,37-2c3.3-0.2,4.7-3.2,3.5-6.1c-0.3-0.7-0.6-1.4-0.9-2.1
			c7.1,0.2,14.3,0,21.4-0.7c8-0.8,18.6-1.1,25.2-6.1c1.8-1.4,2.3-5.4-0.8-5.8c-8.3-1.2-17,2.2-25.4,3.2c-8.9,1-17.9,1.3-26.8,0.8
			c-3.4-0.2-4.8,3.6-3.6,6.2c0.4,1,0.9,2,1.3,2.9c-13,1.1-26,2.3-39.1,3.4c-3.3,0.3-4.5,4.3-1.7,6.2c5.6,3.9,9.6,9.3,12,15.5
			c-7.9-2-15.7-4-23.7-5.6c-1.9-0.4-2.5,2.2-0.8,2.8c9.2,3.6,18.6,6.5,28,9.6c2.2,0.7,3.9-1.5,3.5-3.5
			C917.9,1481.1,914.7,1474.8,909.9,1469.6z"/>
	</g>
	<g>
		<path class="st13" d="M732.1,444.6c0-65.8-53.8-119-119.8-118.1c-63,0.9-114.8,52.2-116.3,115.2c-0.8,32.5,11.6,62.2,32.3,84
			c17,17.9,26.3,41.8,26.3,66.5l0,0c0,12.5,10.1,22.7,22.7,22.7h72.4c13.2,0,23.9-10.7,23.9-23.9v0c0-24.1,9.2-47.3,25.8-64.7
			C719.6,504.9,732.1,476.2,732.1,444.6z"/>
		<path class="st1" d="M695.7,507c12.5-16.9,19.8-37.7,19.8-60.3c0-56.1-45.5-101.5-101.5-101.5c-39.2,0-73.1,22.2-90.1,54.6
			c18.5-25,48.2-41.3,81.7-41.3c5.2,0,10.4,0.4,15.4,1.2c-0.3,0.3-0.6,0.7-0.9,1c-11.5,13.4-2.8,39.8,19.5,59.2
			c22.3,19.3,49.8,24.1,61.4,10.8c0.5-0.5,0.9-1.1,1.3-1.7c3.2,9.8,4.9,20.3,4.9,31.1C707.2,477,703,493,695.7,507z"/>
		<polygon class="st1" points="630.6,625.6 629.2,625.6 629.2,578.9 629.3,578.8 655.2,509.5 636.8,499.4 627.1,508.2 614.2,499.3 
			613.8,499.3 600.9,508.2 591.2,499.4 572.7,509.5 598.8,578.9 598.8,625.6 597.4,625.6 597.4,579.2 571,508.9 591.4,497.7 
			601,506.4 613.4,497.9 614.6,497.9 627,506.4 636.6,497.7 657,508.9 630.6,579.2 		"/>
		<path class="st21" d="M635.7,700.9h-43.5c-1.2,0-2.2-1-2.2-2.2v-30.3h48v30.3C638,699.9,637,700.9,635.7,700.9z"/>
		<path class="st23" d="M662.7,639c3.6-2.7,6-7.2,6-12.3c0-6.6-4.9-12-11-12h-87.3c-6.1,0-11,5.4-11,12c0,5.1,2.4,9.6,6,12.3
			c-3.6,2-6,6-6,10.6v0c0,5.1,2.4,9.6,6,12.3c-3.6,2-6,6-6,10.6v0c0,8.2,6.1,14.8,13.6,14.8h82.1c7.5,0,13.6-6.6,13.6-14.8v0
			c0-4.6-2.4-8.7-6-10.6c3.6-2.7,6-7.2,6-12.3v0C668.6,645,666.2,641,662.7,639z"/>
	</g>
</g>
</svg>
