<?xml version="1.0" encoding="utf-8"?>
<!-- Generator: Adobe Illustrator 25.2.1, SVG Export Plug-In . SVG Version: 6.00 Build 0)  -->
<svg version="1.1" id="Camada_1" xmlns="http://www.w3.org/2000/svg" xmlns:xlink="http://www.w3.org/1999/xlink" x="0px" y="0px"
	 viewBox="0 0 2426.5 233.7" style="enable-background:new 0 0 2426.5 233.7;" xml:space="preserve">
<style type="text/css">
	.st0{fill:#FFFFFF;stroke:#000000;stroke-miterlimit:10;}
	.st1{fill-rule:evenodd;clip-rule:evenodd;}
</style>
<rect x="-18.7" y="-33.7" class="st0" width="2465.6" height="310.2"/>
<g>
	<path class="st1" d="M0,6.3h79.1c56,0.5,101.8,49.9,101.8,110.3c0,60.6-45.8,110-101.8,110.5H0V6.3z M34.6,33.1v168h35.6
		c51.1-1.4,76.5-41.1,76.5-83.5c0-42.1-25.8-76.5-67.4-83.5L34.6,33.1z M314.1,1.2c67.2,0,122,52.1,122,115.7s-54.8,115.4-122,115.4
		c-66.9,0-121.7-51.9-121.7-115.4S247.1,1.2,314.1,1.2L314.1,1.2z M314.6,29.2c48.7,0,88.4,39.2,88.4,87.4
		c0,47.9-39.7,87.2-88.4,87.2S226,164.6,226,116.6C225.9,68.4,265.9,29.2,314.6,29.2z M445.6,6.8h32.6v194.8h62.3v25.3h-95V6.8
		H445.6z M646.4,0c25.3,0,48.9,7.5,68.4,20.2v40.2c-16.3-19.5-40.7-32.1-68.2-32.1c-48.7,0-88.4,39.7-88.4,88.4
		c0,48.5,39.7,88.1,88.4,88.1c27.5,0,51.9-12.6,68.2-32.1v40.7c-20.3,13.4-44.1,20.5-68.4,20.4c-67.2,0-122-52.6-122-116.9
		C524.5,52.6,579.2,0,646.4,0z M759.4,200.9h78.9v26H725.1V6.8h113.2v24.8h-78.9v65.5h78.9v26.8h-78.9L759.4,200.9L759.4,200.9z
		 M962.5,213c-3.6,3.4-7.7,6.2-12.2,8.3c-4.5,2.4-9.3,4.1-14.4,4.9c-1.2,0.3-2.4,0.5-3.7,0.5c-1.2,0.3-2.4,0.3-3.6,0.3
		c-3.4,0-6.8-0.5-10.2-1.2c-3.3-1-6.5-2.6-9.2-4.6c-3.2-2.5-5.8-5.8-7.5-9.5c-2.1-3.6-3.5-7.6-3.9-11.7v-1.5
		c-0.2-0.7-0.2-1.2-0.2-1.7s0-0.7,0.2-1.2v-1.5v-0.5c0.2-0.2,0.2-0.2,0.2-0.5v-1v-0.7c1.5-6.8,4.6-12.2,9.5-16.6
		c4.6-4.4,9.7-8.3,15.1-11.5c-2.9-3.4-5.6-7-8-10.7c-2.4-3.4-3.7-7.5-3.7-11.7V139c0.2-0.5,0.2-1,0.2-1.7c0.2,0,0.2-0.3,0.2-0.5
		v-0.3c0.2-0.3,0.3-0.6,0.2-1c0-0.3,0.2-0.5,0.2-0.7c1.2-5.4,3.9-9.5,8.3-12.4c4.1-2.7,8.8-4.3,13.6-4.6h3.2
		c5.8,0.5,11.5,2.7,16.3,6.6c4.9,3.6,7.3,9,7.3,16.1c0,6.6-2.2,11.9-6.1,15.8c-3.9,4.1-8.5,7.8-13.4,11.2l23.4,28.2
		c2.2-2.7,4.6-5.4,6.8-8c1.9-2.7,4.1-5.6,5.8-8.5l8,8.3c-1.4,2.7-3.1,5.2-5.1,7.5c-1.7,2.2-3.7,4.6-5.6,6.8c-0.5,0.5-1,1-1.5,1.5
		l-1.5,1.4l17,20.7h-15.1L962.5,213L962.5,213z M933,216.2c4.1-0.5,8-1.7,11.4-3.9s6.7-4.6,9.7-7.3c0.2,0,0.5-0.3,0.7-0.5
		c0.2,0,0.5-0.3,0.7-0.5L929,172.3c-0.2,0-0.2,0.3-0.5,0.5c-0.2,0-0.5,0.3-0.7,0.5c-0.5,0.3-0.7,0.5-1.2,0.7c-0.2,0-0.5,0.3-0.7,0.5
		c-2.2,1.4-4.1,2.9-6.1,4.4c-1.9,1.5-3.7,3.4-5.1,5.4c-0.5,1-1.2,1.9-1.7,3.2c-0.6,1.1-1,2.2-1.2,3.4l-0.7,2.9
		c-0.2,1-0.2,1.9-0.2,2.9c0,5.1,1.9,9.8,5.8,13.9c3.6,3.9,8.5,6.1,14.4,6.1c0,0,0.2,0,0.2-0.2h1c0.2,0,0.2-0.3,0.5-0.3L933,216.2
		L933,216.2L933,216.2z M923.3,139v0.7c0,0.3-0.2,0.5-0.2,0.7v0.5c0,2.7,0.7,5.1,2.2,7.3c1.5,2.4,3.2,4.6,5.1,6.6
		c0.5,0.7,1.2,1.5,1.7,2.2s1.2,1.2,1.7,1.9c0.5-0.2,0.7-0.5,1.2-0.7c0.3-0.3,0.8-0.5,1.2-0.5c2.9-1.7,5.4-3.6,7.8-5.8
		c2.4-2.2,3.9-4.9,4.4-8.3v-0.7v-0.7c0-0.2,0.2-0.5,0.2-0.7V141c0-3.4-1.2-6.3-3.6-8.3c-2.2-2.1-5-3.4-8-3.6h-2.2
		c-2.4,0-4.9,1-7.1,2.4C925.2,133.2,923.6,136,923.3,139L923.3,139z M1166.3-1c43.8,0,82.5,22.4,104.2,55.8L1242,69.4
		c-16.3-25.9-44.8-41.6-75.5-41.6c-49.2-0.2-89.1,39.7-89.1,88.9c0,48.9,39.9,88.9,89.1,88.9c41.4,0,74-20.7,76.4-63.8h-71.1v-26.1
		h69.4c0-0.5,35.3,0,37.5,0v1.2c0,68.9-37.5,117.9-112.5,117.9c-75.2,0-123-53.1-123-117.9S1098.6-1,1166.3-1L1166.3-1z
		 M1260.2,226.9l91-220.8h21.7l91.8,220.8H1429l-25.3-62.3h-83.5l-24.8,62.3H1260.2L1260.2,226.9z M1332.8,136.6l29.5-78.4
		l29.9,78.4H1332.8z M1784.7,226.9l91.1-220.8h21.7l91.8,220.8h-35.8l-25.3-62.3h-83.5l-24.8,62.3H1784.7z M1857.5,136.6l29.2-78.4
		l29.9,78.4H1857.5z M2222,226.9l91-220.8h21.7l91.8,220.8h-35.8l-25.3-62.3h-83.5l-24.8,62.3L2222,226.9L2222,226.9z M2294.5,136.6
		l29.5-78.4l30,78.4H2294.5z M1543.6,31.9c21.7,2.4,29.7,11.7,29.7,33.4c0.3,21.7-14.6,33.1-33.6,33.1H1511V31.7h32.6V31.9z
		 M1545.3,125.1h1.7c16.1,0,44.8,3.7,44.8,39.4c0,28.8-25.1,37-48.9,36.8l5.8,0.2H1511V125L1545.3,125.1L1545.3,125.1z M1503,226.9
		h57c39,0,67-25.6,67-62.3c0-28.2-17.6-49.9-42.4-58.4c14.1-9,22.2-25.1,22.2-45.5c0-33.4-22.4-53.8-55.5-54.5
		c-18-0.2-36.3,0-54.5,0h-20V227L1503,226.9L1503,226.9L1503,226.9z M1710.9,31.9c21.7,2.4,29.7,11.7,30,33.4
		c0.2,21.7-14.6,33.1-33.6,33.1h-28.7V31.7h32.4L1710.9,31.9L1710.9,31.9z M1712.8,125.1h1.7c15.8,0,44.8,3.7,44.8,39.4
		c0,28.8-25.3,37-48.9,36.8l5.6,0.2h-37.5V125L1712.8,125.1L1712.8,125.1z M1670.5,226.9h57c38.7,0,66.9-25.6,66.9-62.3
		c0-28.2-17.8-49.9-42.6-58.4c14.4-9,22.2-25.1,22.2-45.5c0-33.4-22.4-53.8-55.3-54.5c-18.3-0.2-36.5,0-54.8,0h-19.7V227
		L1670.5,226.9L1670.5,226.9L1670.5,226.9z M2003.8,6.8h20.9l154.6,163.4V6.8h29.9v220.1h-22.9L2035,65.3V227h-31.2V6.8L2003.8,6.8z
		"/>
</g>
</svg>
