<?xml version="1.0" encoding="utf-8"?>
<!-- Generator: Adobe Illustrator 25.2.1, SVG Export Plug-In . SVG Version: 6.00 Build 0)  -->
<svg version="1.1" id="Camada_1" xmlns="http://www.w3.org/2000/svg" xmlns:xlink="http://www.w3.org/1999/xlink" x="0px" y="0px"
	 viewBox="0 0 136.9 142" style="enable-background:new 0 0 136.9 142;" xml:space="preserve">
<style type="text/css">
	.st0{fill:#FD0000;}
	.st1{fill:#FFFFFF;}
</style>
<circle class="st0" cx="69" cy="70.3" r="67.7"/>
<g>
	<rect x="22.5" y="23.2" class="st1" width="93" height="16.4"/>
	<rect x="22.5" y="68.9" class="st1" width="93" height="16.3"/>
	<rect x="22.5" y="46.1" class="st1" width="93" height="16.3"/>
	<path class="st1" d="M103.2,113.3c2.7-2.6,4.1-5.8,4.1-9.6s-1.4-6.9-4.1-9.7c-2.6-2.6-5.8-3.9-9.5-3.9c-3.7,0-6.9,1.3-9.7,3.9
		c-2.6,2.6-3.9,5.9-3.9,9.7s1.3,6.9,3.9,9.6s5.9,4,9.7,4C97.4,117.3,100.6,116.1,103.2,113.3z"/>
	<path class="st1" d="M53.8,94.2c-2.6-2.6-5.8-3.9-9.5-3.9c-3.7,0-6.9,1.3-9.7,3.9c-2.6,2.6-3.9,5.9-3.9,9.7c0,3.7,1.3,6.9,3.9,9.6
		c2.7,2.6,5.9,4,9.7,4c3.7,0,6.8-1.4,9.5-4s4-5.8,4-9.6C57.9,100,56.5,96.8,53.8,94.2z"/>
</g>
</svg>
