<?xml version="1.0" encoding="utf-8"?>
<!-- Generator: Adobe Illustrator 25.2.1, SVG Export Plug-In . SVG Version: 6.00 Build 0)  -->
<svg version="1.1" id="Camada_1" xmlns="http://www.w3.org/2000/svg" xmlns:xlink="http://www.w3.org/1999/xlink" x="0px" y="0px"
	 viewBox="0 0 742 142" style="enable-background:new 0 0 742 142;" xml:space="preserve">
<style type="text/css">
	.st0{fill:#FFFFFF;}
	.st1{fill:#FD0000;}
</style>
<path class="st0" d="M456.7,81.8c0,9.2,5.2,12.3,12.5,12.3l5.5,0l0-9.2l-3.9,0c-2.4,0-3.3-0.9-3.3-3l0-14.2l7.1,0l0-9l-7.1,0l0-8.6
	l-10.9,0l0,8.6l-4.3,0l0,9l4.3,0L456.7,81.8z M448.5,82.4l-11.6,0c-0.9,1.9-2.6,3.4-5.7,3.4c-3.5,0-6.4-2.2-6.7-6.8l24.6,0
	c0.1-1.1,0.2-2.2,0.2-3.2c0-10.8-7.3-17.7-17.7-17.6c-10.5,0-17.9,7-17.9,18.3c0,11.2,7.5,18.2,17.9,18.2
	C440.5,94.6,446.8,89.3,448.5,82.4z M431.5,66.9c3.6,0,6.7,2.2,6.7,6.1l-13.6,0C425.2,69,427.9,66.9,431.5,66.9z M376.6,94.2l10.9,0
	l0-14.9l10.8,14.9l13.5,0l-14.9-17.6l14.7-17.8l-13.4,0l-10.7,14.4l0-26l-10.9,0L376.6,94.2z M360.3,77.7c0-6.1,3-7.9,8.1-7.9l3,0
	l0-11.5c-4.8,0-8.6,2.5-11.1,6.3l0-5.9l-10.9,0l0,35.5l10.9,0L360.3,77.7z M330.7,76.5c0,5.7-3.6,8.8-7.7,8.8
	c-4.1,0-7.8-3.2-7.8-8.8s3.7-8.7,7.7-8.7C327,67.7,330.7,70.8,330.7,76.5z M304.1,76.5c0,11.2,6.9,18.3,15.6,18.3
	c5.3,0,9-2.4,11-5.5l0,5l10.9,0l0-35.5l-10.9,0l0,5c-1.9-3.1-5.7-5.5-10.9-5.5C311,58.3,304.1,65.3,304.1,76.5z M287.9,94.3l10.8,0
	l0-20.7c0-9.5-5.7-15.1-14.4-15.1c-5.1,0-9.6,2.9-11.9,6.6c-2.4-4.3-6.7-6.6-12.1-6.6c-4.6,0-8.3,2-10.4,4.8l0-4.4l-10.9,0l0,35.5
	l10.9,0l0-19.3c0-4.6,2.7-7.2,6.8-7.2s6.8,2.5,6.8,7.2l0,19.3l10.8,0l0-19.3c0-4.6,2.7-7.2,6.8-7.2c4.1,0,6.8,2.5,6.8,7.2
	L287.9,94.3z M201.5,76.6l28,0l0-9l-28,0L201.5,76.6z M195.1,49.8l-27.3,0l0,44.6l27.3,0l0-8.7l-16.5,0l0-9.8l14.5,0l0-8.4l-14.5,0
	l0-9l16.5,0L195.1,49.8z"/>
<rect x="9" y="6.8" class="st1" width="125.5" height="128.6"/>
<rect x="21" y="25.1" class="st0" width="101.9" height="18"/>
<rect x="21" y="75.1" class="st0" width="101.9" height="17.9"/>
<rect x="21" y="50.1" class="st0" width="101.9" height="17.9"/>
<path class="st0" d="M109.5,123.8c3-2.9,4.5-6.4,4.5-10.5c0-4.1-1.5-7.6-4.5-10.6c-2.9-2.8-6.4-4.3-10.4-4.3
	c-4.1,0-7.6,1.4-10.6,4.3c-2.8,2.9-4.3,6.5-4.3,10.6c0,4.1,1.4,7.6,4.3,10.5c2.9,2.9,6.5,4.4,10.6,4.4
	C103.1,128.2,106.6,126.8,109.5,123.8z"/>
<path class="st0" d="M55.3,102.8c-2.9-2.8-6.4-4.3-10.4-4.3c-4.1,0-7.6,1.4-10.6,4.3c-2.8,2.9-4.3,6.5-4.3,10.6
	c0,4.1,1.4,7.6,4.3,10.5c3,2.9,6.5,4.4,10.6,4.4c4,0,7.5-1.5,10.4-4.4c2.9-2.9,4.4-6.4,4.4-10.5C59.8,109.2,58.3,105.7,55.3,102.8z"
	/>
<rect x="146.9" y="6.5" class="st0" width="1.9" height="130.9"/>
<rect x="484.9" y="11.6" class="st1" width="248.4" height="114.9"/>
<path class="st0" d="M711.9,62.5c0-8.2-5.5-14.4-16.4-14.3l-17.6,0l0,44.6l10.9,0l0-16l6.7,0C706.9,76.7,711.9,69.9,711.9,62.5z
	 M688.8,68.1l0-11.2l5.9,0c4.3,0,6.2,2.2,6.2,5.6c0,3.4-1.8,5.6-6.2,5.6L688.8,68.1z M672.3,62.5c0-8.2-5.5-14.4-16.4-14.3l-17.6,0
	l0,44.6l10.9,0l0-16l6.7,0C667.3,76.8,672.3,69.9,672.3,62.5z M649.1,68.2l0-11.2l5.9,0c4.3,0,6.2,2.2,6.2,5.6
	c0,3.4-1.8,5.6-6.2,5.6L649.1,68.2z M597.6,70.4c0-7.9,4.6-13,11.8-13c7.1,0,11.8,5,11.8,12.9c0,7.8-4.6,13-11.7,13
	C602.2,83.4,597.6,78.2,597.6,70.4z M632.2,70.4c0-13.4-10.1-22.8-22.8-22.8c-12.6,0-22.9,9.4-22.9,22.8c0,13.4,10.3,22.9,23,22.8
	C622.1,93.3,632.3,83.8,632.2,70.4z M569.7,92.9l10.9,0l0-44.6l-10.9,0l0,17.5l-16.9,0l0-17.5l-10.9,0l0,44.6l10.9,0l0-18.4l16.9,0
	L569.7,92.9z M535.2,79.6c0-14.9-22.1-11.4-22.1-19.2c0-2.8,2-4.1,4.6-4.1c2.9,0.1,5,1.8,5.2,4.6l11.8,0c-0.5-8.5-7-13.3-16.7-13.3
	c-9.3,0-16.3,4.7-16.3,13.2c-0.1,15.8,22.2,11.4,22.2,19.6c0,2.6-2,4.2-5.2,4.2c-3,0-5.2-1.6-5.5-5.1l-11.6,0
	c0.3,9,7.8,13.8,17.4,13.8C529.4,93.4,535.2,87.1,535.2,79.6z"/>
</svg>
