<?xml version="1.0" encoding="utf-8"?>
<!-- Generator: Adobe Illustrator 25.2.1, SVG Export Plug-In . SVG Version: 6.00 Build 0)  -->
<svg version="1.1" id="Camada_1" xmlns="http://www.w3.org/2000/svg" xmlns:xlink="http://www.w3.org/1999/xlink" x="0px" y="0px"
	 viewBox="0 0 1494 594" style="enable-background:new 0 0 1494 594;" xml:space="preserve">
<style type="text/css">
	.st0{fill:#FFFFFF;stroke:#000000;stroke-miterlimit:10;}
	.st1{fill-rule:evenodd;clip-rule:evenodd;fill:#035FA0;}
	.st2{fill-rule:evenodd;clip-rule:evenodd;fill:#D23A43;}
</style>
<rect x="-63.7" y="-38.6" class="st0" width="1626.9" height="677.1"/>
<path class="st1" d="M836.6,62.1c0-13.9-5.1-25.8-14.8-35.9c-10.1-9.7-22-14.8-35.9-14.8c-14.4,0-26.2,5.1-35.9,14.8
	c-10.1,10.1-15.2,22-15.2,35.9c0,14.4,5.1,26.2,15.2,36.3c9.7,9.7,21.5,14.8,35.9,14.8c13.9,0,25.8-5.1,35.9-14.8
	C831.5,88.3,836.6,76.4,836.6,62.1 M978.5,64.6c0-14.4-5.1-26.2-14.8-35.9c-10.1-10.1-22-15.2-35.9-15.2c-14.4,0-26.2,5.1-35.9,15.2
	c-10.1,9.7-15.2,21.5-15.2,35.9c0,13.9,5.1,26.2,15.2,35.9c9.7,10.1,21.5,15.2,35.9,15.2c13.9,0,25.8-5.1,35.9-15.2
	C973.5,90.8,978.5,78.6,978.5,64.6"/>
<path class="st2" d="M363.4,145.3c-12.7-7.6-29.6-11.4-51.1-11.4c-38,0-64.2,16.9-79,50.3c-8-33.4-31.3-50.3-69.7-50.3
	c-36.3,0-62.5,16.9-78.2,50.3v-44.8H0v324.1h90.4V275c0-27.5,2.1-46.5,7.2-56.6c4.6-10.1,14.4-14.8,28.7-14.8c11.4,0,19,3.4,22,10.1
	c3.4,6.3,5.1,21.5,5.1,44.8v204.9h90.4V275c0-28.3,2.1-47.3,6.3-57.5c4.6-9.3,13.9-13.9,28.3-13.9c12.2,0,19.4,3.4,23.2,10.6
	c3.4,7.6,5.1,23.2,5.1,47.3v202h90.4V252.2c0-37.2-2.5-62.5-7.6-75.2C384.9,163.5,376,152.9,363.4,145.3 M528.1,334.6v-17.7h169
	c0-70.1-12.2-117.9-37.2-144.1c-24.5-25.8-54.9-38.9-91.7-38.9c-40.6,0-73.1,14.8-97.6,44.4c-24.1,29.6-36.3,72.3-36.3,128.4
	c0,49.4,11.4,89.1,34.2,119.1c23.2,29.6,56.6,44.4,100.1,44.4c71.4,0,114.1-37.6,128.4-113.2H616c-4.2,33.4-19.4,49.9-45.2,49.9
	c-12.7,0-23.2-4.6-30.8-14.4C531.9,382.3,528.1,362.9,528.1,334.6l0.4-70.6c0.4-46.9,14.4-70.6,41.8-70.6
	c27.9,0,41.4,20.7,41.4,61.7v8.9h-83.2 M830.7,463.5V139.4h-90v324.1H830.7z M978.1,139.4h-90.4v311c0,22.4-1.7,37.2-4.6,44.4
	c-3.4,6.3-11.8,9.7-24.9,9.7l-12.3-0.9V578l48.6,4.6c20.7,0,38.4-4.6,52.4-14.8c13.5-9.7,22-23.2,25.8-39.7
	c3.4-16.1,5.5-41.4,5.5-75.2L978.1,139.4z M1056.3,178.3c-24.1,29.2-36.3,71.8-36.3,128.4c0,49.4,11.4,89.1,34.2,119.1
	c23.2,29.6,56.2,44.4,100.1,44.4c71,0,114.1-37.6,128-113.2h-80.7c-4.2,33.4-19.4,49.9-45.6,49.9c-12.7,0-22.8-4.6-30.8-14.4
	c-8-10.1-11.8-29.6-11.8-57.9v-17.7h169c0-70.1-12.2-117.9-36.7-144.1c-24.9-25.8-55.3-38.9-92.1-38.9
	C1112.9,133.9,1080.4,148.7,1056.3,178.3l141.1,76.9l-0.4,8.9h-82.8c0-46.9,13.9-70.6,41.4-70.6c27.9,0,41.8,20.7,41.8,61.7
	 M1403.2,139.4h-79.8v324.1h90.4v-139c0-66.3,21.6-99.7,65.5-99.7l14.8,1.3v-89.2l-15.2-1.3c-36.3,0-61.7,27.5-75.6,82.4
	L1403.2,139.4z"/>
</svg>
