<?xml version="1.0" encoding="utf-8"?>
<!-- Generator: Adobe Illustrator 25.2.1, SVG Export Plug-In . SVG Version: 6.00 Build 0)  -->
<svg version="1.1" id="illustration" xmlns="http://www.w3.org/2000/svg" xmlns:xlink="http://www.w3.org/1999/xlink" x="0px"
	 y="0px" viewBox="0 0 4517.1 3092.2" style="enable-background:new 0 0 4517.1 3092.2;" xml:space="preserve">
<style type="text/css">
	.st0{fill:#ED7447;}
	.st1{fill:#2B3058;}
	.st2{fill:#D35E39;}
	.st3{clip-path:url(#SVGID_2_);}
	.st4{fill:#FFFFFF;}
	.st5{fill:#1E1E1E;}
	.st6{fill:#F4EBDC;}
	.st7{fill:#433A55;}
	.st8{fill:#E03B1F;}
	.st9{fill:#C7C7C7;}
	.st10{fill:#EAEAEA;}
	.st11{fill:none;}
	.st12{fill:#1C213F;}
	.st13{fill:#5E231D;}
	.st14{fill:#753126;}
	.st15{fill:#1D50BD;}
	.st16{fill:#1A1B38;}
	.st17{fill:#E05536;}
	.st18{fill:#5A4E74;}
	.st19{fill:#4A4063;}
	.st20{fill:#FF8F67;}
	.st21{fill:#3E9D8B;}
	.st22{fill:#006666;}
</style>
<g>
	<g>
		<path class="st0" d="M2676.6,1021.6c0,0,97.3-16,129.4-44.9c32.1-28.9,154-86.6,165.7-81.3s-4.3,19.2-10.7,20.3
			c-6.4,1.1-61.3,29.9-49.2,36.3s144-24.9,148.2-17.8c4.3,7.1,2.9,11.4-17.8,14.3s-57,15.7-57,17.8c0,2.1,0.7,7.1,10,5.7
			s89.1-12.1,90.5-6.4s5,14.3-12.1,15.7c-17.1,1.4-84.1,2.9-83.4,9.3c0.7,6.4-1.4,5,7.1,5.7c8.6,0.7,78.4-2.9,80.5-0.7
			s9.3,12.8-7.8,15s-86.2-1.4-86.2,4.3c0,5.7,3.6,6.4,8.6,6.8s74.1-1.1,77.7,3.2c3.6,4.3,4.3,14.3-10,14.3s-115.5,5.7-140.4,16.4
			c-24.9,10.7-85.4,55.4-123.8,101.9s-110.7,100.5-194,126.2C2601.7,1283.6,2580.3,1142.4,2676.6,1021.6z"/>
		<g>
			<path class="st0" d="M1681.8,964.7c0,0-150.7-4.3-227.6-58.8c0,0-64.8-79.8-120.4-86.9c0,0-14.2,5.7,0,17.8
				c14.2,12.1,52,33.5,46.3,39.2s-40.4-6.4-52.6-13.5s-56.4-39.2-60.6-35.6c-4.3,3.6-12.8,14.2-2.8,19.9c10,5.7,60.5,33.5,58.4,39.9
				s-5.7,5.7-14.2,0.7s-59.8-32.8-67-32.1c-7.1,0.7-9.3,10.7-5,14.2c4.3,3.6,64.1,34.9,64.1,40.6s-4.8,3.7-5.1,2.9
				c-0.3-0.8-46.5-23.2-49.9-22.7c-3.5,0.5-9.3,6.4-5.6,11.2c3.7,4.8,52.1,30.7,51.8,34.2c-0.3,3.5-1.3,4-4.3,3.5
				c-2.9-0.5-39.6-20.2-41.8-18.8c-2.1,1.4-8.2,6.4-5.7,10.7c2.5,4.3,60.5,51.1,91,55.9s63,13.9,81.2,34.2
				c18.2,20.3,180,176.3,279.4,195.5C1691.4,1216.9,1703.2,1024.6,1681.8,964.7z"/>
			<g>
				<g>
					<g>
						<path class="st0" d="M2072.1,166.6c0,0-73.4,63.8-68.5,163.3s1.5,182.4,109.3,180.8c0,0,11.4,65.8-53.9,99.5
							c0,0,74.6,135.8,228.7-1.2c0,0-63.7-69.6-35.9-165.8c0,0,93.1-101.2,18-215.9S2072.1,166.6,2072.1,166.6z"/>
					</g>
					<g>
						<ellipse class="st1" cx="2143.2" cy="343.3" rx="14.7" ry="15.2"/>
					</g>
					<g>
						<ellipse class="st1" cx="2043.8" cy="341.7" rx="14.7" ry="15.2"/>
					</g>
					<g>
						<path class="st2" d="M2087.3,335.8c0,0,33.5,52.6,26,62s-24.2,12.7-42.3,4.9l13.4-61.3
							C2084.3,341.4,2084.8,336.8,2087.3,335.8z"/>
					</g>
					<g>
						<path class="st1" d="M2175.2,299.9c1.7-2.9,0.2-7-1.2-9.3c-3.8-6.1-12.1-6.4-20.8-6.7c-9.2-0.4-19.1-0.8-22.5,5.5
							c-1.4,2.6-1.7,6.5,0,9.3c2.1,3.4,6.1,3.4,23.7,3.8C2169.6,302.7,2173.6,302.8,2175.2,299.9z"/>
					</g>
					<g>
						<path class="st1" d="M2069.9,298.1c1.7-2.9,0.2-7-1.2-9.3c-3.8-6.1-12.1-6.4-20.8-6.7c-9.2-0.4-19.1-0.8-22.5,5.5
							c-1.4,2.6-1.7,6.5,0,9.3c2.1,3.4,6.1,3.4,23.7,3.8C2064.3,300.9,2068.2,301,2069.9,298.1z"/>
					</g>
					<g>
						<g>
							<defs>
								<path id="SVGID_1_" d="M2072.1,166.6c0,0-62.1,64.1-57.2,163.6s-9.8,182.1,98,180.5c0,0,11.4,65.8-53.9,99.5
									c0,0,73.8,134.9,229.8,0c0,0-64.9-70.8-37.1-167c0,0,93.1-101.2,18-215.9S2072.1,166.6,2072.1,166.6z"/>
							</defs>
							<clipPath id="SVGID_2_">
								<use xlink:href="#SVGID_1_"  style="overflow:visible;"/>
							</clipPath>
							<g class="st3">
								<path class="st2" d="M2113,510.7c0,0,47.4-9,82.2-39.4c0,0-15.2,88.8-110,107.9L2113,510.7z"/>
							</g>
						</g>
					</g>
					<g>
						<path class="st4" d="M2099.4,476.5c30.7-4,43.2-27.9,46.8-36.6h-93.9C2055.5,449.9,2067.9,480.6,2099.4,476.5z"/>
					</g>
					<path class="st1" d="M2230.9,138.6c0,0,66.5-21.6,41.7-100.5c-2.2-7-5-13-8.2-18.1c-30.9-35-87.8-20.1-99.6,13.5
						c-16.6,47.4,5.7,81.9,5.7,81.9s-160.8-3.1-213.3,187c-51.9,187.8,53.3,255.1,154.2,241.9c3-12.4,3.1-27,1.5-33.7
						c-10.9,0.8-74.8,1.5-95.4-66c-26.4-86.2-11.6-226.5,48.4-262.6c88.6-53.2,153.7,69.7,153.7,140.8c0,0,32.7-19.3,42.8,3.9
						c10.6,24.2-7.6,52.4-40.8,66.9c0,0,11.5,98.9,27,132.9c0,0,158.5-13.9,184.8-91.2C2459.6,358.1,2360.7,184.9,2230.9,138.6z"/>
				</g>
				<g>
					<path class="st0" d="M2529.7,2830l142.6,11.5l50.3,118.4c0,0,134.3,94.2,150.8,96.7s72.6-6.4,62.4,35.6h-391.2
						c0,0,14.4-95.5,50.1-131.1L2529.7,2830z"/>
					<path class="st5" d="M2932.7,3069.3H2873v-12.8c-2.8-0.6-8.1-3.2-15.3-7.3v20.1h-221.6c-0.2-14.7-2.8-58.7-26.8-94.2H2713h31.5
						c-1.6-26.1-18.4-28-18.4-28h-142.4l7,14c-35.6,35.6-46.2,131.1-46.2,131.1h391.2C2938.3,3081.8,2936.7,3074.5,2932.7,3069.3z"
						/>
				</g>
				<g>
					<path class="st0" d="M1936.7,2828.3l142.6,11.5l50.3,118.4c0,0,134.3,94.2,150.8,96.7s72.6-6.4,62.4,35.6h-391.2
						c0,0,14.4-95.5,50.1-131.1L1936.7,2828.3z"/>
					<path class="st5" d="M2339.6,3067.6h-59.7v-12.8c-2.8-0.6-8.1-3.2-15.3-7.3v20.1H2043c-0.2-14.7-2.8-58.7-26.8-94.2h103.7h31.5
						c-1.6-26.1-18.4-28-18.4-28h-142.4l7,14c-35.6,35.6-46.2,131.1-46.2,131.1h391.2C2345.3,3080,2343.7,3072.7,2339.6,3067.6z"/>
				</g>
				<g>
					<path class="st6" d="M1999.4,596.2c0,0,78.2-6.7,91.2-8.6c0,0,30.6,71.3,89.1,65.2c73.9-7.7,86-77.8,86-77.8s44.8-5.5,59.7-3.1
						c14.9,2.5,94.7,23.4,96.5,81.9s5.6,658.4,29.8,723.6l-437.8,22.4c0,0-1.2-676.2-14.6-745.2
						C1999.4,654.7,1986.7,616,1999.4,596.2z"/>
					<g>
						<path class="st7" d="M1937.6,1352.1c0,0-69.2,1207-9.6,1497.6h316.7c0,0,20.8-844.2,28.2-938c0,0,153.9,800.2,206,938h354
							c0,0-247-1281.5-314.1-1519.9L1937.6,1352.1z"/>
						<path class="st8" d="M1999.4,596.2c0,0-150.9,14.9-178.8,42.8c-27.9,27.9-39.1,46.6-59.6,115.5s-33.5,173.3-85.7,199.3
							c0,0,20.5,203.1,0,290.6c0,0,26.1,24.2,42.8,18.6c16.8-5.6,130.4-83.8,160.2-143.4c0,0,27.9,87.6-11.2,216.1
							c-39.1,128.5-13,186.3-13,186.3s195.6,46.6,247.8,9.3c0,0,9.3-160.2-9.3-268.3c-18.6-108.1-1.9-424.8-27.9-523.5
							C2038.5,640.9,1999.4,596.2,1999.4,596.2z"/>
						<path class="st8" d="M2325.4,572c0,0,5.6,221.7-20.5,350.2s-20,285,10.5,409.8s62.2,137.9,62.2,137.9s197.5-14.9,229.1-29.8
							c0,0-54-128.5-55.9-169.5c0,0,35.4,22.4,89.4,22.4c0,0,9.3-7.5,9.3-22.4s9.3-190,61.5-249.6c0,0-100.6-303.7-134.1-359.5
							C2543.4,605.5,2325.4,572,2325.4,572z"/>
					</g>
				</g>
				<g>
					<g>
						<path class="st4" d="M2272.3,1851.2c-35.6-168.1-64.9-489.4-65.2-492.6l10-0.9c0.3,3.2,29.5,323.9,65.1,491.4L2272.3,1851.2z"
							/>
					</g>
					<g>
						<path class="st4" d="M2258.4,1705.8l-6.8-7.3l50.9-47.5c4.2-3.9,6.2-9.6,5.5-15.2c-10.3-77.5-35.4-275-35.6-277l9.9-1.3
							c0.3,2,25.3,199.5,35.6,277c1.2,8.8-2,17.8-8.6,23.9L2258.4,1705.8z"/>
					</g>
				</g>
			</g>
			<g>
				<path class="st4" d="M2546.4,1272.9c-0.6-1.2-14.9-28.9-28.1-80.3c-12.2-47.3-25.6-124.3-20.5-222.6l10,0.5
					c-5,96.9,8.1,172.7,20.1,219.2c12.9,50.4,27.3,78.3,27.4,78.6L2546.4,1272.9z"/>
			</g>
		</g>
		<g>
			<path class="st9" d="M2527.2,1348.9h621.6c15.2,0,29.1,12.3,31,27.6l51,413h191.9c5.7,0,10.4,4.6,10.4,10.4v18.7
				c0,5.7-4.6,10.4-10.4,10.4h-210.6c-1.3,0.2-2.6,0.3-4,0.3h-621.6c-15.2,0-29.1-12.3-31-27.6l-52.5-425.2
				C2501.2,1361.2,2512,1348.9,2527.2,1348.9z"/>
			<polygon class="st10" points="3195.5,1755.8 2586.6,1755.8 2541.9,1398.4 3149.9,1398.4 			"/>
		</g>
		<g>
			<g>
				<path class="st0" d="M3011.5,1750.5c0,0-205.4-36-266.7,86.3l315.6,2.1l58.6-10.2v-113.3L3011.5,1750.5z"/>
				<g>
					<path class="st1" d="M2790.1,1834.3c-0.4,0-0.7-0.1-1.1-0.2c-1.2-0.6-1.8-2.1-1.2-3.3s14.5-29.6,46.5-47.5
						c1.2-0.7,2.7-0.2,3.4,1s0.2,2.7-1,3.4c-30.6,17.2-44.3,45-44.4,45.3C2791.9,1833.8,2791,1834.3,2790.1,1834.3z"/>
				</g>
				<g>
					<path class="st1" d="M2871.1,1840.9c-15.3,0-29.2-1.9-36.6-7.4c-3.6-2.7-5.5-6.2-5.8-10.2c-0.5-7.3,9.5-9.8,21.1-12.7
						c10.7-2.7,22.9-5.7,24-12.2c5.9-36.2,63.1-37.6,65.5-37.7l0,0c1.4,0,2.5,1.1,2.5,2.5s-1.1,2.5-2.5,2.5
						c-0.6,0-55.5,1.4-60.7,33.5c-1.6,9.8-15.5,13.2-27.7,16.2c-7.8,1.9-17.5,4.3-17.3,7.5c0.2,2.6,1.4,4.8,3.8,6.6
						c19.6,14.9,97.7-0.6,98.5-0.8c1.3-0.3,2.7,0.6,2.9,2c0.3,1.4-0.6,2.7-2,2.9C2934.9,1834.1,2900.4,1840.9,2871.1,1840.9z"/>
				</g>
			</g>
			<g>
				<g>
					<polygon class="st0" points="3399.6,2726.5 3258.5,2962 3168.5,2959 3276.5,2725.2 					"/>
				</g>
				<path class="st11" d="M3024.4,3039.2c3.5-0.9,7-2,10.7-3.1C3031.1,3037.6,3027.5,3038.7,3024.4,3039.2z"/>
				<path class="st12" d="M3024.4,3039.2c3-0.5,6.6-1.6,10.7-3.1c69.7-21.8,126-80.5,138.6-88.3c15.3,9.3,73.2,16.4,84.7,9.2
					c1.1-0.7,2.4-1.2,3.8-1.7c4.6,5.8,35.8,47,33.5,77c-0.3,3.6-0.5,7.8-0.6,12.5l-2.4,46.4l-305,2.8
					C2984.2,3076.8,2992.4,3044.2,3024.4,3039.2z"/>
			</g>
			<g>
				<g>
					<polygon class="st0" points="3154.3,2446 3013.3,2681.5 2923.2,2678.5 3031.3,2444.7 					"/>
				</g>
				<path class="st11" d="M2779.2,2758.7c3.5-0.9,7-2,10.7-3.1C2785.8,2757.1,2782.2,2758.2,2779.2,2758.7z"/>
				<path class="st12" d="M2779.2,2758.7c3-0.5,6.6-1.6,10.7-3.1c69.7-21.8,126-80.5,138.6-88.3c15.3,9.3,73.2,16.4,84.7,9.2
					c1.1-0.7,2.4-1.2,3.8-1.7c4.6,5.8,35.8,47,33.5,77c-0.3,3.6-0.5,7.8-0.6,12.5l-2.4,46.4l-305,2.8
					C2739,2796.3,2747.1,2763.7,2779.2,2758.7z"/>
			</g>
			<g>
				<g>
					<path class="st0" d="M4072.1,1232.7c-10.3-23.7-26.4-65.1-26.4-92c0,0,7.9-156.3-23.7-194.9s-178.1-56.5-250.1-44.2
						c0,0,0.4,90.7-8.7,108.3c-9,17.6-37.1,36-31,44.8s26.3,10.5,26.3,10.5l-0.9,20.2c0,0-1.3,84.3,5.5,93.9
						c6.8,9.7,98.1,22.8,120,19.3l-0.5,49.7C3912.4,1254.1,3994.6,1265.3,4072.1,1232.7z"/>
					<path class="st11" d="M3794.8,919.1c0.1,0,0.1,0,0.1,0C3794.8,919.1,3794.8,919.1,3794.8,919.1z"/>
					<path class="st11" d="M3758.7,1065.2c0,0-0.2,0.5-0.5,1.2C3758.5,1065.6,3758.7,1065.2,3758.7,1065.2z"/>
					<path class="st11" d="M3768.4,1192.5c-0.4-0.1-0.8-0.2-1.2-0.4C3767.6,1192.3,3768,1192.4,3768.4,1192.5z"/>
					<path class="st1" d="M4101.9,861.5c-15.8-52.7-140.5-124.7-284.4-72c0,0-54.9,47.1-54.2,101.7c10.7,25.6,29.9,27.8,31.4,27.9
						h0.1l0,0l0,0c28.2,2.3,68.9,8.2,70,23.1c1.8,22.8,0,84.3,0,84.3s-0.6,11.7-2.4,26.5c-0.2,1.6-0.4,3.2-0.6,4.9
						c-0.5,3.3-1.6,8.3-3.8,11.8c-4.2,6.1-13.1,16.2-26,17c-42.2,2.9-73.4-21.6-73.4-21.6s-5.3,24.9-4.3,47.4l0,0
						c0.9,20.4,2.1,44.8,3.3,50.8c2,9.8,2.4,25.7,9.5,28.8c0.4,0.1,0.8,0.3,1.2,0.4c16.3,4.3,99.6,14.8,114.9,6.1
						c15.4-8.7,29.1-40.5,27.4-79.9s-22.5-78.6-21.2-92.2c0,0,0-47.4,28.1-43.9s33.4,57.9,19.3,87.8c-14,29.8,7.5,61.4,7.5,61.4
						l101.4,8.8c0,0,24.6-100.1,43.9-129.9C4108.9,980.9,4117.7,914.2,4101.9,861.5z"/>
				</g>
				<path class="st4" d="M3753.8,1105.5c0,0,36.2,11.2,65.4-2.1c0,0,13,1.7,7.9,11.1c-5.1,9.3-34.6,22.7-72.1,18.5L3753.8,1105.5z"
					/>
				<g>
					<path class="st1" d="M3832,1005.8c-2.2,0-4.3-1.1-5.5-3c-13.4-21.2-43.7-18.7-44-18.6c-3.6,0.3-6.7-2.3-7.1-5.9
						c-0.3-3.6,2.3-6.7,5.9-7.1c1.6-0.1,38.7-3.2,56.2,24.6c1.9,3,1,7.1-2,9C3834.4,1005.5,3833.2,1005.8,3832,1005.8z"/>
				</g>
				
					<ellipse transform="matrix(0.2286 -0.9735 0.9735 0.2286 1940.8518 4476.1807)" class="st1" cx="3794.9" cy="1013.4" rx="12.1" ry="12.1"/>
			</g>
			<g>
				<path class="st13" d="M3332.9,2191.6l-139.7,683.5l264.5,71.3l222.9-686.5c0,0-124.8-160.5-208-151.6
					C3389.4,2117.3,3332.9,2191.6,3332.9,2191.6z"/>
				<path class="st14" d="M3960,1974.7l-445.8-77.3c0,0-89.2-26.7-175.3,38.6S2948,2503.8,2948,2503.8l188.8,157.3l127.4-133.9
					c0,0,83.6-380.2,184.7-353.5c101,26.7,196.1,172.4,288.3,187.2c92.1,14.9,518.7,73.1,607.8-13.1c89.2-86.2,26.7-267.5,0-306.1
					C4318.3,2003.1,3960,1974.7,3960,1974.7z"/>
				<path class="st15" d="M3802.5,2019.3c0,0-56.5-163.5-77.3-228.8c0,0-266,87.3-436,80.1c-169.8-7.2-202.3-3.3-202.3-3.3
					l9.2-162.1c0,0,162.5-57.3,348.2-101.9c0,0,153.1-309.1,408.6-359.6c0,0,205.1-32.7,249.6-23.8c44.5,8.9,94.9,46,159.1,179.3
					c77.3,160.5,139.8,634.6,115.9,636.3C4270.9,2043.2,3802.5,2019.3,3802.5,2019.3z"/>
			</g>
			<g>
				<path class="st4" d="M3727.6,1794.8l-4.8-8.8c0.3-0.2,34.7-19,73.1-55.5c35.4-33.6,81.6-89.4,101-164.7l9.7,2.5
					c-20.1,77.8-67.7,135.2-104,169.7C3763.2,1775.3,3729,1794,3727.6,1794.8z"/>
			</g>
		</g>
		<g>
			<g>
				<g>
					<path class="st16" d="M3975.8,3093.6c-5.5,0-10-4.5-10-10v-594.4c0-5.5,4.5-10,10-10s10,4.5,10,10v594.4
						C3985.8,3089.1,3981.3,3093.6,3975.8,3093.6z"/>
				</g>
				<g>
					<path class="st16" d="M4223.2,3093.6h-487.6c-5.5,0-10-4.5-10-10s4.5-10,10-10h487.6c5.5,0,10,4.5,10,10
						S4228.7,3093.6,4223.2,3093.6z"/>
				</g>
			</g>
			<path class="st9" d="M3633.2,2470L3633.2,2470c0.7-2.6,1.6-5.3,2.5-8l0,0l0,0c0.6-1.7,1.2-3.4,1.8-5
				c7.3-17.6,27.5-41.1,27.6-41.1c36.8-38.4,152.8-171.7,152.8-171.7l114.7-562.8c0,0,7.3-65.5,31.5-72.8
				c24.3-7.3,505.3-29.1,522.3-14.6c17,14.6,36.4,29.1,29.1,72.8s-145.6,769-145.6,769s-4.9,34-36.4,43.7
				c-28.2,8.7-565.1,23.1-681.4,15.8l0,0C3631.7,2491.2,3633.2,2470,3633.2,2470z"/>
		</g>
		<g>
			<path class="st9" d="M3469.5,1031.9c33.2-32.2,53.8-77.3,53.8-127.2c0-98-79.4-177.4-177.4-177.4s-177.4,79.4-177.4,177.4
				s79.4,177.4,177.4,177.4c24.4,0,47.6-4.9,68.8-13.8l71.7,42.2c3.7,2.2,8.1-1.4,6.7-5.4L3469.5,1031.9z"/>
			<g>
				<g>
					<path class="st4" d="M3451.5,888H3237c-2.4,0-4.4-2-4.4-4.4s2-4.4,4.4-4.4h214.5c2.4,0,4.4,2,4.4,4.4
						C3455.9,886,3454,888,3451.5,888z"/>
				</g>
				<g>
					<path class="st4" d="M3451.5,946.8H3237c-2.4,0-4.4-2-4.4-4.4s2-4.4,4.4-4.4h214.5c2.4,0,4.4,2,4.4,4.4
						S3454,946.8,3451.5,946.8z"/>
				</g>
			</g>
		</g>
		<g>
			<g>
				<polygon class="st0" points="913.6,2730.1 816.9,2965.6 901.6,2963 1036.6,2728.8 				"/>
			</g>
			<path class="st11" d="M1057.5,3042.8c-3.5-0.9-7-2-10.7-3.1C1050.9,3041.2,1054.5,3042.3,1057.5,3042.8z"/>
			<path class="st12" d="M1057.5,3042.8c-3-0.5-6.6-1.6-10.7-3.1c-69.7-21.8-126-80.5-138.6-88.3c-15.3,9.3-73.2,16.4-84.7,9.2
				c-1.1-0.7-2.4-1.2-3.8-1.7c-4.6,5.8-35.8,47-33.5,77c0.3,3.6,0.5,7.8,0.6,12.5l2.4,46.4l305,2.8
				C1097.8,3080.4,1089.6,3047.8,1057.5,3042.8z"/>
		</g>
		<g>
			<g>
				<polygon class="st0" points="1340.8,2722.9 1244.1,2958.4 1328.8,2955.8 1463.8,2721.6 				"/>
			</g>
			<path class="st11" d="M1484.8,3035.6c-3.5-0.9-7-2-10.7-3.1C1478.1,3034,1481.8,3035.1,1484.8,3035.6z"/>
			<path class="st12" d="M1484.8,3035.6c-3-0.5-6.6-1.6-10.7-3.1c-69.7-21.8-126-80.5-138.6-88.3c-15.3,9.3-73.2,16.4-84.7,9.2
				c-1.1-0.7-2.4-1.2-3.8-1.7c-4.6,5.8-35.8,47-33.5,77c0.3,3.6,0.5,7.8,0.6,12.5l2.4,46.4l305,2.8
				C1525,3073.2,1516.8,3040.6,1484.8,3035.6z"/>
		</g>
		<g>
			<path class="st0" d="M845.8,1225.4c10.3-23.7,26.4-65.1,26.4-92c0,0-7.9-156.3,23.7-194.9S1074,882,1146,894.3
				c0,0-0.4,90.7,8.7,108.3c9,17.6,37.1,36,31,44.8s-26.3,10.5-26.3,10.5l0.9,20.2c0,0,1.3,84.3-5.5,93.9
				c-6.8,9.7-98.1,22.8-120,19.3l0.5,49.7C1005.5,1246.8,923.4,1258,845.8,1225.4z"/>
			<path class="st11" d="M1123.2,911.8C1123.1,911.8,1123.1,911.8,1123.2,911.8C1123.1,911.8,1123.1,911.8,1123.2,911.8z"/>
			<path class="st1" d="M816,854.2c15.8-52.7,140.5-124.7,284.4-72c0,0,54.9,47.1,54.2,101.7c-10.7,25.6-29.9,27.8-31.4,27.9h-0.1
				l0,0l0,0c-28.2,2.3-68.9,8.2-70,23.1c-1.8,22.8,0,84.3,0,84.3h-24.6c0,0,0-47.4-28.1-43.9s-33.4,57.9-19.3,87.8
				c14,29.8-7.5,61.4-7.5,61.4l-101.4,8.8c0,0-24.6-100.1-43.9-129.9C809,973.6,800.2,906.9,816,854.2z"/>
		</g>
		<g>
			<path class="st9" d="M1665.5,1350.2h-621.6c-15.2,0-29.1,12.3-31,27.6l-51,413H770c-5.7,0-10.4,4.6-10.4,10.4v18.7
				c0,5.7,4.6,10.4,10.4,10.4h210.6c1.3,0.2,2.6,0.3,4,0.3h621.6c15.2,0,29.1-12.3,31-27.6l52.4-425.2
				C1691.5,1362.5,1680.7,1350.2,1665.5,1350.2z"/>
			<polygon class="st10" points="997.2,1757.1 1606.1,1757.1 1650.7,1399.7 1042.7,1399.7 			"/>
		</g>
		<path class="st17" d="M1034.6,1211.3c0,0,199.3,31.7,260.7,102.9c61.5,71.2,307.3,297.6,446.4,336.4
			c139.1,38.8,245.8,61.5,245.8,61.5s16.2,84.1,0,122.9h-520.8c0,0-171.4-58.2-203.8-100.3c0,0,19.4,192.1,12.9,278.2
			c-7.7,102.2-38.8,304.1-38.8,304.1H541.6v-559.6c0,0,6.5-378.4,77.6-469s236.8-89.6,236.8-89.6S898.8,1285.6,1034.6,1211.3z"/>
		<path class="st18" d="M1256.6,2134.2c0,0,307.2,9.6,428.5,21.7c121.3,12.1,135.9,128.6,118.9,172.2
			c-17,43.7-279,550.7-344.5,623.5l-225.6-48.5c0,0,143.1-339.6,194.1-439.1H581.3c0,0-36.4-213.5,0-271.7
			C617.7,2134.1,879.2,2116.8,1256.6,2134.2z"/>
		<polygon class="st19" points="1268.2,2453.3 1035.3,2936 787.9,2921.5 962.5,2463 		"/>
		<path class="st20" d="M1994.1,1709.8h47.3c0,0,41.2-48.5,78.8-48.5s108.8,0,116.6,21.2c5.9,16-17,22.2-17,22.2s40-5.3,42.6,17
			c2.2,19.1-22.2,22.1-22.2,22.1s20.8-2.5,20.4,19.5c-0.4,21.8-31.1,18.3-31.1,18.3s26,3.1,12,28.8c-7.1,13.1-43.7,0-43.7,0
			s30.3,14.6,14.6,24.3c-15.8,9.7-218.3,0-218.3,0L1994.1,1709.8L1994.1,1709.8z"/>
		<path class="st4" d="M1160.2,1097c0,0-35.8,12.4-65.5,0c0,0-12.9,2.2-7.5,11.3c5.4,9.2,35.3,21.6,72.6,16.2L1160.2,1097z"/>
		<g>
			<path class="st1" d="M1085.9,998.5c-1.2,0-2.4-0.3-3.5-1c-3-1.9-3.9-5.9-2-9c17.6-27.8,54.7-24.8,56.2-24.6
				c3.6,0.3,6.2,3.5,5.9,7.1c-0.3,3.6-3.5,6.2-7.1,5.9c-0.4,0-30.8-2.4-44.1,18.6C1090.2,997.4,1088.1,998.5,1085.9,998.5z"/>
		</g>
		<circle class="st1" cx="1123.1" cy="1005.9" r="12.1"/>
		<g>
			<path class="st4" d="M1258.9,1737.4c-0.7-1.1-17.9-26.8-36.2-67.1c-16.9-37.2-37.7-94.1-41.2-154.2l10-0.6
				c6.4,112.2,75,215.3,75.7,216.3L1258.9,1737.4z"/>
		</g>
		<g>
			<path class="st1" d="M2167.8,1712.2c-2.8,0-5-2.2-5-5s2.2-5,5-5c8.9,0,55.3-2.5,55.8-2.6c2.8-0.1,5.1,2,5.3,4.7
				c0.2,2.8-2,5.1-4.7,5.3C2222.2,1709.8,2177,1712.2,2167.8,1712.2z"/>
		</g>
		<g>
			<path class="st1" d="M2214.2,1748.9c-7.2,0-14.2,0-18.6-0.2c-2.8-0.1-4.9-2.4-4.8-5.2c0.1-2.8,2.4-4.9,5.2-4.8
				c12.7,0.4,47.9,0,48.3,0c0,0,0,0,0.1,0c2.7,0,5,2.2,5,4.9c0,2.8-2.2,5-4.9,5.1C2243.4,1748.8,2228.2,1748.9,2214.2,1748.9z"/>
		</g>
		<g>
			<path class="st1" d="M2233.6,1786.6h-39.9c-2.8,0-5-2.2-5-5s2.2-5,5-5h39.9c2.8,0,5,2.2,5,5S2236.3,1786.6,2233.6,1786.6z"/>
		</g>
		<g>
			<path class="st1" d="M2201.9,1815.5c-0.2,0-0.4,0-0.6,0l-21.1-2.4c-2.7-0.3-4.7-2.8-4.4-5.5s2.8-4.7,5.5-4.4l21.1,2.4
				c2.7,0.3,4.7,2.8,4.4,5.5C2206.6,1813.6,2204.4,1815.5,2201.9,1815.5z"/>
		</g>
		<g>
			<path class="st4" d="M946.2,1275.8c-112.8-1.2-130.2-54.6-130.9-56.9l9.6-2.9l-4.8,1.4l4.8-1.5c0,0.1,4,12.2,20.7,24.3
				c15.6,11.3,45.8,25,100.8,25.6L946.2,1275.8z"/>
		</g>
		<g>
			<path class="st4" d="M1428.8,2469l-1.6-9.9c1.1-0.2,114.4-19.1,223.6-101.4l6,8c-58.2,43.8-117,69.6-156.1,83.4
				C1458.3,2464.2,1429.9,2468.8,1428.8,2469z"/>
		</g>
		<g>
			<path class="st4" d="M1586.1,2427c-17.7,0-27.4-2.7-28.2-3l2.8-9.6c0.4,0.1,37.9,10.4,102-11.7l3.3,9.5
				C1631.5,2424,1604.5,2427,1586.1,2427z"/>
		</g>
		<g>
			<g>
				<path class="st16" d="M861.8,3090c-5.5,0-10-4.5-10-10v-594.4c0-5.5,4.5-10,10-10s10,4.5,10,10V3080
					C871.8,3085.5,867.3,3090,861.8,3090z"/>
			</g>
			<g>
				<path class="st16" d="M1109.2,3090H621.6c-5.5,0-10-4.5-10-10s4.5-10,10-10h487.6c5.5,0,10,4.5,10,10S1114.7,3090,1109.2,3090z"
					/>
			</g>
			<path class="st9" d="M371.2,1761.8c0,0-25.9-64.7,0-84.1s459.3-16.2,504.6-16.2s58.2,19.4,77.6,77.6
				c19.4,58.2,184.4,701.9,184.4,701.9h297.6v48.5c0,0-255.5,38.8-300.8,38.8c-45.3,0-533.7,0-533.7,0s-32.3-3.2-38.8-19.4
				C555.6,2492.8,371.2,1761.8,371.2,1761.8z"/>
		</g>
		<g>
			<path class="st9" d="M1875.1,1065.4c-33.2-32.2-53.8-77.3-53.8-127.2c0-98,79.4-177.4,177.4-177.4s177.4,79.4,177.4,177.4
				s-79.4,177.4-177.4,177.4c-24.4,0-47.6-4.9-68.8-13.8l-71.7,42.2c-3.7,2.2-8.1-1.4-6.7-5.4L1875.1,1065.4z"/>
			<g>
				<g>
					<path class="st4" d="M1893.1,921.6h214.5c2.4,0,4.4-2,4.4-4.4s-2-4.4-4.4-4.4h-214.5c-2.4,0-4.4,2-4.4,4.4
						S1890.7,921.6,1893.1,921.6z"/>
				</g>
				<g>
					<path class="st4" d="M1893.1,980.4h214.5c2.4,0,4.4-2,4.4-4.4s-2-4.4-4.4-4.4h-214.5c-2.4,0-4.4,2-4.4,4.4
						S1890.7,980.4,1893.1,980.4z"/>
				</g>
			</g>
		</g>
		<g>
			<g>
				<g>
					<g>
						<path class="st21" d="M358.6,1522.8c61.3-72,81.2-114.9,114.9-177.7c33.7-62.8,93.4-44.4,81.2,4.6
							c-12.3,49-4.6,189.9-21.4,315.5c-11,82.2-64,106.7-99.3,113.8c-5.2,0.1-36.7,0.5-53.1-8.3
							C289.6,1713.5,301.3,1590.1,358.6,1522.8z"/>
						<path class="st21" d="M497.3,2118.7L497.3,2118.7c29.9-32.6,81.4-64.7,134.3-50.5c79.7,21.4,111.8-35.2,194.5,7.7
							c63.9,33.1,30,108.2-10.6,135.1c-16.5,7.7-33.9,8-42.5,7.5c-48-6.9-123,31.7-181.3,55c-53.4,21.3-99.8-27-110.8-39.9
							c-20.8-28.4-7.4-71.9-0.6-89.5C484.8,2134.6,497.3,2118.7,497.3,2118.7z"/>
						<path class="st21" d="M87.8,2263.3c38.3,35.2,142.5,81.2,202.2,119.5c41.6,26.7,40.1,71.2,35.4,95.7l-0.1-0.1
							c0,0-4.2,15.4-9.3,24.7c-16,24.4-29.2,43.8-70.5,48.2c-49.9,5.3-102.6-70.5-127.1-130.2S15.8,2321.5,2,2275.6
							C-11.8,2229.6,49.5,2228.1,87.8,2263.3z"/>
						<path class="st21" d="M197.9,2214.1c0,0,41.4,52.1,116.4,7.7s47.5-167,0-223.6c-47.5-56.7-98-154.7-98-229.8
							s-36.8-197.6-122.5-157.8c-85.8,39.8-23,134.8,4.6,194.5s42.9,151.6,39.8,208.3C135.1,2070.1,145.8,2162,197.9,2214.1z"/>
						<path class="st21" d="M475.9,2608.6c0,0,61.8,53.4,103.8-12.2c42-65.5,45.7-121.1,79.1-170.6c33.4-49.4,18.5-127.3-35.8-111.3
							s-56.9,81.6-85.3,108.8s-79.6,73.3-85.3,110C447.8,2563.2,447.1,2581.9,475.9,2608.6z"/>
						<path class="st21" d="M495.4,1977.5c0,0,74.4,64.2,124.9-14.6c50.6-78.8,55-145.8,95.2-205.3s22.3-153.2-43.1-133.9
							s-68.4,98.2-102.6,130.9S474,1842.8,467.2,1887C461.6,1922.8,460.8,1945.4,495.4,1977.5z"/>
						<path class="st22" d="M51.6,2307.9c0.2-0.5,0.6-0.9,1.1-1.1c0.5-0.2,1-0.2,1.6,0l26.4,10.4c-14.7-17.8-22.9-28.4-23-28.5
							c-0.3-0.4-0.5-1-0.4-1.5s0.3-1,0.8-1.4c0.9-0.7,2.2-0.5,2.9,0.4c0.3,0.4,29.9,38.5,77.5,92.4V2317c0-1.1,0.9-2,2-2s2,0.9,2,2
							v66.2c38.6,43.6,77.3,84.2,115,120.8l-2.9-81.9c0-1.1,0.8-2.1,2-2.1c0,0,0,0,0.1,0c1.1,0,2,0.9,2,2l3.1,85.8
							c0,0.1,0,0.2,0,0.3c39.7,38.3,78,71.9,114,99.8c-5.9-88.7-8.5-179.6-7.9-270.1c-30.3-40.2-61.4-95.9-92.3-165.6l-91.8-65.8
							c-0.9-0.7-1.1-1.9-0.5-2.8c0.3-0.4,0.8-0.7,1.3-0.8s1.1,0,1.5,0.4l86.2,61.8c-28.9-65.9-57.4-143-84.8-229.3
							c-4.8-15.2-9.7-31-14.5-46.8l-33-30c-0.4-0.4-0.6-0.9-0.7-1.4c0-0.5,0.2-1.1,0.5-1.5c0.8-0.8,2-0.9,2.9-0.1l28,25.5
							c-34.3-114.6-54.1-201.8-54.3-202.7c-0.1-0.5,0-1.1,0.3-1.5c0.3-0.5,0.7-0.8,1.3-0.9c0.5-0.1,1.1,0,1.5,0.3
							c0.5,0.3,0.8,0.7,0.9,1.3c0.1,0.3,6.6,29.1,18.5,74.6l22.4-60.3c0.2-0.5,0.6-0.9,1.1-1.1c0.5-0.2,1-0.2,1.6-0.1
							c0.5,0.2,0.9,0.6,1.1,1.1c0.2,0.5,0.2,1,0.1,1.6l-24.4,65.7c11.3,43,23.4,85.9,35.9,127.6c0.4,0.4,0.5,1,0.5,1.5
							c4.7,15.7,9.5,31.3,14.3,46.3c11.1,35,22.6,69,34.2,101.2l4.2-101.8c0-0.5,0.3-1.1,0.7-1.4c0.4-0.4,0.9-0.6,1.5-0.5
							c0.5,0,1,0.3,1.4,0.7s0.6,0.9,0.5,1.5l-4.6,111.7c46.3,127.1,93,223.1,138.8,285.4c0.4-40.6,1.4-81,3-120.1
							c6.1-147.9,20.8-297.2,43.8-443.6c2.9-18.3,5.9-36.8,9.1-55.2l-37.6-92.6c-0.4-1,0.1-2.2,1.1-2.6c0.5-0.2,1.1-0.2,1.6,0
							s0.9,0.6,1.1,1.1l35.2,86.5c4.8-27.4,9.9-55,15.2-81.9c0-0.4,0-0.7,0.2-1c8-40.3,16.6-80.1,25.6-118.2l-20.3-49.7
							c-0.2-0.5-0.2-1.1,0-1.6s0.6-0.9,1.1-1.1c0.5-0.2,1.1-0.2,1.6,0s0.9,0.6,1.1,1.1l18.1,44.4c20.9-87.6,36.6-136.6,36.8-137.1
							c0.3-1.1,1.5-1.7,2.6-1.3c1.1,0.3,1.7,1.5,1.3,2.6c-0.1,0.2-6.7,21.1-16.9,58.7l24.3-23.7c0.4-0.4,0.9-0.6,1.4-0.6
							s1.1,0.2,1.4,0.6c0.8,0.8,0.8,2.1,0,2.9l-29.2,28.4c-10.7,40.2-27,105.6-43.7,189.1l67.7-66.7c0.4-0.4,0.9-0.6,1.4-0.6l0,0
							c0.5,0,1.1,0.2,1.4,0.6c0.4,0.4,0.6,0.9,0.6,1.4s-0.2,1.1-0.6,1.4l-71.9,70.9c-9.4,47.3-18,96-25.6,144.5
							c-14.7,93.9-26.2,190.6-34,287.6c50.2-24.6,99-64.3,145.1-118V1851c0-1.1,0.9-2,2-2s2,0.9,2,2v82
							c27.7-32.9,54.2-70.5,78.6-111.9c0.7-1.2,1.4-2.3,2.1-3.5l-8.1-58.4c-0.2-1.1,0.6-2.1,1.7-2.3c1.1-0.1,2.1,0.6,2.3,1.7
							l7.3,53.3c27.1-46.9,46.8-89.9,58.6-117.8l-5.2-25.6c-0.1-0.5,0-1.1,0.3-1.5s0.8-0.8,1.3-0.9c1.1-0.2,2.2,0.5,2.4,1.6l4,19.7
							c7.7-18.6,11.6-29.7,11.7-29.8c0.4-1.1,1.5-1.6,2.6-1.2c1.1,0.4,1.6,1.5,1.2,2.6c0,0.1-4.8,13.5-14.2,35.8
							c0,0.4-0.2,0.8-0.5,1.1c-8.7,20.6-18.4,41.6-28.8,62.2l32.2-17c1-0.5,2.2-0.1,2.7,0.9s0.1,2.2-0.8,2.7l-37.2,19.6
							c-9.5,18.6-19.4,36.9-29.7,54.4c-0.1,0.3-0.2,0.5-0.4,0.7c-0.7,1.2-1.4,2.5-2.2,3.7c-11.6,19.7-24,38.9-36.6,57l56-22
							c0.5-0.2,1.1-0.2,1.6,0s0.9,0.6,1.1,1.1c0.4,1-0.1,2.2-1.1,2.6l-61.7,24.3c-13.4,18.8-27.3,36.7-41.4,53.2
							c-0.2,0.6-0.6,1-1.1,1.2c-47.1,54.8-97,95.1-148.4,119.8c-4.6,57.4-7.9,115.6-9.9,172.9c37.6-0.3,87.9-8.4,149.4-24.1
							l37.7-82.5c0.2-0.5,0.6-0.9,1.1-1.1c0.5-0.2,1.1-0.2,1.6,0.1c1,0.5,1.5,1.7,1,2.7l-36.3,79.5c35.7-9.2,75.2-21,117.3-35
							l23.5-44.9c0.3-0.5,0.7-0.8,1.2-1s1.1-0.1,1.5,0.1c1,0.5,1.4,1.7,0.9,2.7l-21.5,41.2c47.6-15.9,89.6-31.6,116.5-41.9
							l24.3-37.2c0.6-0.9,1.9-1.2,2.8-0.6c0.9,0.6,1.2,1.9,0.6,2.8l-21.2,32.4c20-7.8,31.8-12.7,31.9-12.7c1-0.4,2.2,0.1,2.7,1.1
							c0.4,1-0.1,2.2-1.1,2.7c-0.4,0.1-36.8,15.2-89.4,34.3l40.9,5.2c1.1,0.1,1.9,1.2,1.8,2.3s-1.1,1.9-2.3,1.8l-48-6.1
							c-0.2,0-0.4-0.1-0.5-0.2c-47.5,17.1-92.7,31.9-134.4,44.1l80,20.5c1.1,0.3,1.7,1.4,1.5,2.5c-0.2,0.9-1,1.5-2,1.5
							c-0.2,0-0.3,0-0.5-0.1l-86.5-22.2H569c-82.3,23.6-147.7,35.8-194.3,36.1c-5.2,152-1.3,302.7,11.6,448.1
							c39.9-19.5,78.8-50.9,115.5-93.2c0-0.1,0-0.1,0-0.2V2521c0-1.1,0.9-2,2-2s2,0.9,2,2v66.4c22.7-26.8,44.4-57.6,64.5-91.4
							l0.2-0.4l-6.5-47.4c-0.2-1.1,0.6-2.1,1.7-2.3c0.5-0.1,1.1,0.1,1.5,0.4c0.4,0.3,0.7,0.8,0.8,1.3l5.8,42.3
							c21.9-37.7,37.9-72.4,47.4-94.8l-4.3-21.3c-0.1-0.5,0-1.1,0.3-1.5c0.3-0.5,0.8-0.8,1.3-0.9c0.5-0.1,1.1,0,1.5,0.3
							c0.5,0.3,0.8,0.8,0.9,1.3l3.1,15.4c6.2-15,9.5-24.3,9.5-24.4c0.4-1.1,1.5-1.6,2.6-1.2c0.5,0.2,0.9,0.5,1.2,1
							c0.2,0.5,0.3,1,0.1,1.6c-0.1,0.3-12.3,34.8-35.5,80.9l24.9-13.1c1-0.5,2.2-0.1,2.7,0.9s0.1,2.2-0.9,2.7l-30,15.8
							c-8,15.6-16.4,30.9-25,45.4c-9.4,15.9-19.4,31.4-29.7,46.1l44.8-17.6c0.5-0.2,1.1-0.2,1.6,0s0.9,0.6,1.1,1.1s0.2,1.1,0,1.6
							s-0.6,0.9-1.1,1.1l-50.3,19.8c-0.1,0-0.2,0.1-0.3,0.1c-47.5,66.5-99.1,113.4-153.3,139.5c2,22.4,4.2,44.5,6.6,65.8
							c0.1,1.1-0.7,2.1-1.8,2.2c-0.1,0-0.1,0-0.2,0c-1,0-1.9-0.8-2-1.8c-5.1-46.3-9.3-94.3-12.6-142.6
							c-54.4-41.9-113.4-96-175.4-160.9c-0.1,0-0.2,0-0.3,0l-50-11.2c-0.5-0.1-1-0.4-1.3-0.9s-0.4-1-0.3-1.5c0.1-0.5,0.4-1,0.9-1.3
							s1-0.4,1.5-0.3l44.4,10c-46.8-49.3-85.4-94.3-109.5-123.4l-33.2-13.1c-0.5-0.2-0.9-0.6-1.1-1.1
							C51.4,2309,51.4,2308.4,51.6,2307.9z"/>
					</g>
				</g>
			</g>
			<rect x="203.6" y="2728.9" class="st1" width="361.5" height="361.5"/>
		</g>
		<polygon class="st16" points="1348.2,1828.6 1348.2,1877.4 1583.6,1877.4 1583.6,3094.5 1611.9,3094.5 1611.9,1877.4 
			3230.8,1877.4 3230.8,3094.5 3259.2,3094.5 3259.2,1877.4 3499.3,1877.4 3499.3,1828.6 		"/>
	</g>
</g>
</svg>
